<?xml version="1.0" standalone="no"?>
<!DOCTYPE svg PUBLIC "-//W3C//DTD SVG 20010904//EN"
 "http://www.w3.org/TR/2001/REC-SVG-20010904/DTD/svg10.dtd">
<svg version="1.0" xmlns="http://www.w3.org/2000/svg"
 width="666.000000pt" height="666.000000pt" viewBox="0 0 666.000000 666.000000"
 preserveAspectRatio="xMidYMid meet">
<metadata>
Created by potrace 1.14, written by Peter Selinger 2001-2017
</metadata>
<g transform="translate(0.000000,666.000000) scale(0.100000,-0.100000)"
fill="#000000" stroke="none">
<path d="M0 4958 c1 -1175 4 -1698 11 -1685 6 9 15 14 21 11 6 -4 14 -1 18 6
7 12 30 6 30 -8 0 -4 -18 -16 -40 -26 l-40 -19 0 -150 0 -149 65 7 c55 5 65 4
65 -9 0 -8 -16 -27 -35 -42 -34 -26 -45 -44 -26 -44 5 0 28 18 51 41 47 46 38
50 102 -41 38 -53 52 -66 95 -86 37 -16 57 -46 48 -73 -3 -11 -6 -76 -6 -145
-1 -121 0 -128 27 -173 16 -27 32 -56 36 -66 4 -9 11 -17 16 -17 5 0 14 -11
20 -25 6 -14 17 -24 24 -23 7 2 15 -17 21 -50 5 -29 12 -50 17 -47 16 10 23
-18 7 -30 -15 -10 -31 -91 -21 -106 5 -8 157 141 229 225 66 77 83 108 91 173
5 41 12 58 29 69 29 19 36 36 44 101 6 46 5 51 -10 43 -15 -9 -15 -7 -1 24 9
20 21 32 28 29 8 -3 15 11 20 44 3 26 12 59 18 73 22 45 15 54 -42 57 -60 4
-81 -17 -43 -43 11 -8 21 -23 21 -32 -1 -15 -3 -14 -16 3 -16 20 -16 20 -31
-2 -26 -39 -62 -21 -41 19 6 12 3 28 -7 49 -9 17 -14 33 -11 36 8 8 26 -7 26
-22 0 -8 7 -11 20 -8 11 3 20 9 20 13 0 4 15 11 33 14 31 6 32 8 34 56 1 28
-3 50 -8 50 -5 0 -9 7 -9 16 0 12 -6 15 -25 10 -32 -8 -32 7 1 31 25 18 25 20
9 36 -14 14 -15 20 -5 32 8 10 9 15 2 15 -6 0 -15 -6 -19 -14 -12 -20 -58 -25
-59 -6 -1 8 -2 21 -3 28 0 7 -6 10 -12 6 -6 -3 -14 -1 -18 5 -6 8 -19 7 -50
-4 -30 -10 -48 -12 -61 -5 -24 13 -43 13 -35 0 3 -5 2 -10 -4 -10 -15 0 -23
18 -11 25 5 3 10 14 10 24 0 10 14 33 31 51 29 30 35 32 85 28 62 -5 125 -42
154 -91 l20 -32 0 57 c0 74 -28 149 -92 244 -67 101 -156 161 -244 165 -22 1
-43 5 -49 8 -5 3 -24 6 -42 7 -25 0 -29 -2 -19 -10 18 -14 32 -76 17 -76 -5 0
-12 4 -16 9 -3 5 -19 9 -36 9 -17 -1 -35 5 -40 13 -7 11 -9 11 -9 -2 0 -19
-26 -33 -42 -23 -7 5 -4 12 7 20 27 20 15 24 -23 9 -31 -14 -51 -40 -38 -52 3
-3 12 0 21 7 9 7 18 11 21 8 3 -3 -13 -14 -35 -25 -30 -15 -37 -23 -29 -31 15
-15 10 -19 -35 -27 -33 -7 -37 -5 -31 11 4 11 23 35 41 54 28 28 31 36 18 38
-9 2 -24 -3 -33 -11 -21 -18 -72 -31 -72 -18 0 5 15 14 33 21 17 7 41 15 52
20 90 34 150 48 158 37 7 -9 10 -9 14 1 2 6 11 12 18 12 20 0 26 28 8 38 -14
8 -13 10 2 15 9 4 13 11 10 17 -3 5 -1 10 4 10 6 0 11 6 11 13 0 7 5 18 11 24
14 14 57 -6 65 -31 4 -13 8 -15 14 -6 5 8 13 9 26 2 11 -6 27 -13 36 -16 12
-3 15 -11 11 -22 -4 -12 -3 -15 5 -10 7 4 12 1 12 -8 0 -16 12 -21 23 -9 4 3
2 12 -5 20 -10 12 -7 12 15 2 21 -9 30 -9 42 1 8 7 25 10 40 6 20 -5 26 -2 31
18 3 14 3 29 0 35 -4 5 -2 12 4 16 5 3 7 17 4 31 -6 25 16 83 44 112 10 11 12
11 12 -2 0 -14 4 -14 35 1 19 9 35 21 35 27 0 6 11 16 25 23 20 9 28 8 39 -3
18 -17 49 -7 42 13 -4 11 -1 13 14 8 12 -4 20 -2 20 5 0 7 8 9 23 5 18 -6 20
-5 10 6 -10 10 -9 15 5 25 13 10 19 9 29 -5 11 -14 12 -14 13 7 0 19 3 21 19
12 30 -15 46 -13 32 4 -8 9 -8 16 -2 20 5 4 14 -2 20 -11 10 -17 10 -17 11 0
0 9 5 17 10 17 6 0 10 -4 10 -10 0 -5 6 -10 14 -10 7 0 19 -7 26 -15 19 -23
30 -18 30 13 l0 27 18 -30 c17 -27 17 -31 3 -37 -14 -6 -14 -7 2 -9 9 -1 21
-2 26 -3 6 0 15 -6 22 -13 6 -6 18 -9 27 -6 10 4 13 2 8 -6 -6 -9 4 -11 37 -8
24 2 49 7 55 11 7 4 12 2 12 -4 0 -7 7 -9 16 -6 12 4 14 1 9 -14 -7 -21 9 -28
20 -10 4 6 10 8 15 5 5 -3 11 -1 15 5 10 17 25 11 25 -9 0 -19 1 -19 57 1 38
13 59 16 61 9 5 -16 28 -13 46 5 15 14 16 14 16 -1 0 -22 27 -30 46 -14 14 12
19 10 38 -14 23 -28 76 -38 76 -14 0 7 5 5 11 -5 5 -10 16 -15 25 -11 9 3 20
0 24 -8 7 -11 14 -9 34 10 24 23 24 23 31 2 7 -24 37 -28 55 -6 16 20 40 19
40 -1 0 -13 7 -15 31 -10 17 3 35 6 40 6 5 0 9 6 9 13 0 24 43 37 106 33 34
-2 66 -6 72 -10 5 -3 67 -5 138 -5 71 0 147 -1 169 -3 22 -2 46 0 53 5 6 5 44
11 83 14 40 2 80 8 90 13 10 6 27 10 39 10 42 0 117 31 128 53 25 51 24 66 -2
73 -15 3 -42 4 -61 2 l-35 -4 35 29 c35 28 44 50 25 62 -19 12 -94 -17 -119
-46 -14 -16 -29 -29 -34 -29 -4 0 -23 15 -41 34 -20 20 -48 35 -67 38 -44 7
-279 -13 -279 -24 0 -4 43 -8 95 -8 76 0 95 -3 95 -14 0 -8 -9 -17 -19 -21
-25 -8 -275 -45 -278 -41 -2 2 4 19 12 39 8 20 15 47 15 61 0 16 7 27 20 31
11 3 32 21 47 39 41 49 61 56 182 63 122 7 192 -6 216 -40 l14 -20 18 20 c27
31 76 43 169 43 95 0 108 -10 91 -65 -7 -23 -5 -45 5 -82 10 -33 12 -57 6 -74
-5 -13 -11 -42 -13 -63 -6 -60 -22 -88 -71 -124 -40 -30 -62 -62 -31 -47 6 4
5 0 -3 -7 -8 -7 -26 -26 -39 -40 -24 -27 -24 -28 -7 -73 10 -25 24 -45 32 -45
12 0 15 -13 13 -60 -2 -62 -19 -100 -45 -100 -8 0 -14 -4 -14 -10 0 -8 -33
-17 -88 -23 -35 -3 -96 -62 -88 -83 5 -14 4 -15 -8 -5 -16 14 -32 -2 -20 -20
4 -8 0 -9 -15 -4 -14 4 -21 2 -21 -7 0 -20 -56 -48 -69 -35 -18 18 -12 -3 9
-34 12 -15 26 -43 32 -61 6 -18 16 -40 23 -48 19 -23 28 -97 13 -102 -8 -3 -4
-9 10 -17 12 -6 22 -21 22 -31 0 -13 7 -20 20 -20 25 0 46 -54 50 -132 0 -5 5
-8 11 -8 6 0 19 -10 29 -22 l19 -23 -6 23 c-4 17 -1 22 16 22 14 0 27 -13 41
-40 11 -22 25 -40 31 -40 23 0 49 22 49 40 0 26 20 25 49 -1 24 -22 65 -107
76 -157 3 -17 12 -32 19 -35 10 -4 10 9 4 60 -5 35 -8 84 -6 108 l3 44 29 -22
c69 -53 93 -88 126 -188 32 -94 50 -123 50 -80 0 11 6 22 12 24 8 4 7 6 -3 6
-11 1 -19 13 -23 35 -4 18 -18 62 -31 96 -41 104 -27 138 35 90 34 -26 46 -25
20 2 -25 27 -26 42 -2 36 12 -3 24 2 31 13 13 23 49 25 57 4 4 -8 14 -15 23
-15 14 0 14 2 1 10 -13 8 -12 10 3 10 9 0 17 4 17 10 0 5 7 18 15 27 8 10 21
26 28 36 12 17 16 16 72 -21 52 -35 95 -46 79 -21 -6 11 60 76 86 84 23 7 46
93 31 117 -7 12 -8 24 -2 35 5 11 5 27 -1 42 -7 20 -6 28 7 37 18 14 115 17
115 5 0 -11 -56 -150 -70 -173 -14 -24 8 -58 37 -58 13 0 28 -9 35 -19 11 -18
13 -18 36 -3 l24 16 -7 -65 c-7 -71 -15 -253 -10 -229 2 8 8 62 14 120 19 170
22 190 30 190 5 0 12 -17 17 -37 l8 -38 5 33 c3 18 11 31 16 30 17 -5 10 -164
-16 -343 l-24 -170 -6 70 c-3 39 -6 56 -7 38 -3 -51 -30 -257 -53 -393 -30
-186 -170 -732 -184 -718 -9 9 18 198 40 283 13 50 31 135 39 190 9 55 23 132
31 170 29 144 54 283 70 390 8 61 17 122 20 138 2 15 1 27 -4 27 -9 0 -41
-109 -41 -139 0 -10 -7 -35 -15 -55 -13 -30 -19 -35 -33 -27 -10 5 -24 20 -31
33 -14 27 -60 63 -68 54 -4 -3 5 -19 19 -34 14 -15 39 -48 57 -75 30 -44 32
-51 25 -107 -4 -33 -11 -63 -16 -66 -5 -3 -21 2 -35 12 -19 12 -28 13 -31 5
-2 -6 -8 -9 -13 -5 -5 3 -9 0 -9 -5 0 -6 11 -11 25 -11 25 0 31 -13 26 -50 -1
-8 -9 -80 -16 -160 -8 -86 -20 -158 -29 -175 -10 -18 -16 -56 -16 -97 0 -73
-12 -118 -33 -118 -7 0 -20 -26 -30 -60 -17 -55 -37 -80 -37 -45 0 8 4 15 8
15 14 0 -1 73 -16 78 -7 2 -12 -5 -12 -16 0 -28 -8 -32 -43 -17 -31 12 -56 10
-67 -5 -3 -4 -20 -10 -37 -13 -26 -5 -37 -2 -53 15 -19 21 -20 21 -20 2 0 -14
-2 -16 -9 -5 -5 8 -10 -7 -14 -45 -8 -85 -11 -98 -22 -106 -15 -11 -45 -10
-45 2 0 5 8 7 18 3 9 -3 4 4 -11 17 -24 19 -35 21 -77 16 -30 -4 -51 -2 -55 4
-4 6 -1 9 7 8 7 -2 14 7 16 19 2 16 8 20 20 16 15 -6 15 -5 3 10 -20 25 -9 29
28 11 23 -11 36 -13 43 -6 12 12 4 42 -12 42 -6 0 -8 -5 -5 -10 3 -5 -1 -10
-9 -10 -10 0 -13 6 -10 15 7 17 -11 21 -21 5 -11 -18 -25 -11 -36 17 -7 19 -6
28 2 34 17 10 1 29 -18 22 -13 -5 -15 -2 -10 17 3 13 2 32 -4 42 -7 13 -7 18
2 16 6 -2 14 3 16 10 3 8 -1 12 -12 10 -13 -2 -20 8 -30 44 -6 26 -16 53 -22
60 -6 7 -16 31 -23 53 -7 22 -15 45 -19 50 -3 6 -7 25 -8 44 -1 18 -11 43 -21
55 -23 25 -29 48 -37 136 -3 36 -10 76 -15 90 -9 24 -14 50 -26 130 -3 19 -10
39 -14 44 -11 12 -32 -3 -24 -17 3 -7 -5 1 -18 17 -14 16 -29 26 -35 23 -6 -4
-14 4 -17 18 -4 15 -11 23 -17 19 -7 -4 -7 1 1 15 9 17 9 26 -1 37 -16 20 -41
18 -38 -3 5 -55 -2 -163 -11 -158 -6 3 -10 -4 -11 -17 0 -15 -5 -8 -14 21 -8
25 -12 48 -9 53 3 4 1 8 -4 8 -14 0 -30 65 -46 185 -8 61 -20 151 -26 200 -20
151 -70 378 -87 397 -14 16 -39 16 -29 0 2 -4 -2 -16 -10 -26 -11 -16 -16 -17
-29 -6 -13 11 -15 8 -15 -22 0 -26 6 -38 23 -47 46 -24 97 -158 97 -256 0 -27
7 -77 14 -110 17 -69 13 -88 -4 -24 -6 24 -23 78 -36 119 -14 41 -27 94 -31
118 -3 23 -10 42 -15 42 -5 0 -6 5 -3 10 4 6 -1 22 -10 36 -9 14 -14 32 -11
40 6 15 -3 18 -28 8 -20 -8 -20 -46 -1 -87 l16 -32 -25 30 c-14 17 -26 36 -26
43 0 16 -27 16 -33 0 -2 -7 4 -24 13 -38 10 -14 39 -68 65 -120 26 -52 51 -97
55 -100 4 -3 29 -45 55 -93 47 -87 47 -89 45 -175 -1 -48 -2 -91 -2 -97 0 -5
3 -28 7 -50 8 -40 8 -40 -13 -22 l-21 19 18 -59 c10 -32 24 -71 30 -87 6 -16
10 -31 7 -33 -2 -3 -7 4 -10 15 -4 11 -13 22 -20 25 -11 4 -11 -2 0 -36 28
-89 54 -196 53 -219 0 -12 -7 2 -16 32 -8 30 -26 83 -39 117 -13 35 -33 98
-45 140 -21 81 -86 236 -101 241 -4 2 -6 7 -3 12 8 14 -52 137 -70 144 -10 3
-20 5 -22 3 -2 -2 10 -36 26 -75 17 -40 28 -72 25 -72 -3 0 4 -10 16 -22 11
-12 17 -24 15 -27 -9 -8 -65 63 -60 76 2 7 -4 17 -15 23 -11 6 -32 37 -47 70
-31 66 -56 76 -61 25 -2 -16 -9 -33 -15 -37 -9 -6 -8 -10 2 -17 7 -5 11 -15 9
-22 -3 -8 -1 -22 4 -31 5 -11 5 -18 -1 -18 -5 0 -11 -7 -14 -14 -4 -10 -1 -13
9 -9 7 3 14 0 14 -6 0 -6 -5 -11 -12 -11 -6 0 -4 -8 6 -19 10 -11 15 -25 11
-31 -4 -6 1 -21 12 -32 16 -19 16 -21 1 -15 -12 4 -15 2 -11 -9 3 -8 12 -13
20 -10 8 3 12 2 8 -3 -3 -5 12 -12 32 -16 46 -8 85 -40 113 -92 11 -21 34 -56
50 -78 38 -52 103 -183 130 -265 18 -53 21 -78 16 -140 -10 -131 -18 -200 -23
-200 -2 0 -19 11 -37 25 -18 14 -38 25 -44 25 -6 0 -12 6 -15 13 -2 6 -8 8
-13 4 -5 -5 -1 -13 8 -18 45 -25 76 -60 74 -84 0 -14 -5 -25 -9 -25 -5 0 -5
-4 -2 -10 3 -6 -1 -7 -10 -4 -11 5 -14 2 -9 -10 3 -9 1 -16 -5 -16 -6 0 -11
-18 -11 -42 0 -55 -10 -90 -23 -85 -6 2 -25 -11 -44 -29 -23 -23 -39 -31 -55
-27 -19 4 -20 3 -8 -6 8 -6 22 -11 31 -11 9 0 24 -9 33 -19 10 -10 38 -24 63
-30 42 -11 47 -10 60 9 17 24 35 17 31 -13 -3 -19 9 -26 92 -57 52 -20 131
-44 175 -54 44 -9 90 -21 102 -26 43 -17 194 -33 217 -22 99 46 184 47 218 2
18 -25 28 -28 102 -34 45 -4 90 -4 98 -1 14 6 28 49 33 100 0 6 9 37 19 70 10
33 19 76 21 95 1 20 12 67 23 105 41 140 106 435 152 690 26 147 39 245 88
695 17 146 19 155 40 158 25 4 30 22 5 22 -14 0 -14 2 3 21 19 22 19 22 -5 14
-13 -4 -22 -3 -19 1 2 5 14 29 27 54 21 44 71 92 71 70 0 -6 -9 -32 -21 -57
-16 -36 -18 -48 -8 -57 7 -7 10 -7 6 0 -7 13 31 94 56 118 9 10 17 32 17 51 0
22 -6 38 -17 44 -11 6 -13 11 -5 12 6 1 18 2 25 3 13 2 11 34 -4 52 -12 15 14
49 30 40 7 -5 16 -18 21 -30 7 -17 9 -18 9 -3 1 11 6 15 12 11 16 -9 3 60 -19
101 -16 30 -62 136 -62 144 0 2 9 -4 20 -14 25 -22 25 -18 2 33 l-18 40 -44
-76 c-24 -43 -71 -129 -104 -193 -75 -143 -84 -154 -121 -163 -29 -7 -29 -7
-12 12 17 19 17 21 -2 58 -12 21 -21 42 -21 45 0 4 16 14 36 24 19 9 39 26 43
39 5 12 16 28 25 35 26 22 19 26 -36 24 -29 -2 -46 0 -38 3 55 23 87 40 98 56
17 24 29 23 37 -3 10 -31 29 -17 36 27 9 49 2 60 -20 33 -12 -15 -31 -22 -66
-24 -58 -4 -88 2 -79 16 3 6 12 8 20 5 19 -7 44 3 44 19 0 7 10 19 23 28 l22
15 -27 28 c-17 20 -29 46 -34 79 -4 28 -13 67 -20 89 -22 62 -18 120 11 154
24 29 25 62 2 62 -5 0 -25 11 -43 25 -18 14 -46 25 -63 25 -17 0 -49 6 -71 12
-49 16 -52 37 -10 85 16 18 30 38 30 43 0 6 8 10 18 11 14 0 14 2 -3 9 -11 5
-14 9 -7 9 8 1 3 14 -14 36 -26 35 -27 38 -15 88 7 29 11 58 9 66 -3 13 20 23
55 22 9 0 17 4 17 9 0 5 6 7 14 4 8 -3 17 -1 20 5 4 5 17 8 30 5 13 -2 41 0
63 4 27 6 55 4 99 -9 110 -31 131 -57 141 -179 7 -94 19 -99 46 -19 14 42 17
75 14 146 -2 51 -9 99 -16 106 -6 8 -8 17 -4 20 3 4 -2 9 -11 13 -11 4 -15 13
-11 25 4 12 1 21 -9 25 -12 5 -13 11 -6 24 9 16 3 21 -46 35 -30 9 -64 13 -75
10 -13 -4 -19 -2 -19 9 0 12 11 15 53 13 47 -2 52 0 55 21 2 15 -2 22 -13 22
-9 0 -14 4 -11 9 8 12 -4 42 -14 36 -4 -2 -6 -15 -5 -29 4 -32 -29 -46 -72
-31 -27 9 -31 13 -20 24 10 10 9 12 -3 10 -8 -1 -28 4 -45 11 l-30 13 25 7
c23 7 24 8 5 15 -11 4 -26 9 -33 11 -7 2 -11 14 -8 29 5 26 -8 43 -19 25 -4
-6 -18 -15 -31 -20 -14 -6 -28 -20 -33 -32 -5 -13 -10 -17 -15 -10 -8 13 16
76 33 86 6 4 11 0 11 -8 0 -26 28 -18 46 13 17 29 40 31 56 7 4 -6 12 -11 18
-11 5 0 10 -3 10 -7 0 -5 0 -12 0 -18 0 -5 -8 -10 -17 -11 -11 0 -13 -3 -5 -6
6 -2 12 -10 12 -16 1 -17 48 -49 60 -42 6 3 13 -1 16 -9 11 -29 24 -17 18 17
-7 34 -31 60 -47 50 -6 -3 -7 -1 -3 5 4 7 2 12 -3 12 -6 0 -11 7 -11 15 0 8
-14 21 -30 30 -16 9 -30 20 -30 25 0 6 -6 10 -13 10 -7 0 -33 13 -58 29 -44
27 -139 57 -204 63 -83 7 -234 -25 -302 -64 -18 -11 -46 -21 -62 -22 -33 -2
-106 -50 -128 -83 -8 -13 -19 -20 -24 -17 -11 6 -12 34 -1 33 19 -3 32 2 32
14 0 14 27 40 53 50 20 7 22 28 5 45 -9 9 -8 12 5 12 10 0 17 8 17 19 0 11 10
22 23 26 l22 7 -24 7 -24 6 27 12 c25 12 34 32 20 46 -4 3 -9 50 -11 104 -2
53 -8 102 -14 109 -5 6 -8 26 -7 45 1 19 -3 34 -10 37 -6 2 -12 14 -12 26 0
39 -48 73 -137 95 -45 12 -96 21 -115 21 -40 0 -56 10 -72 41 -6 13 -20 25
-31 27 -18 2 -17 1 4 -18 25 -21 25 -22 7 -55 -26 -48 -83 -99 -151 -136 -33
-17 -67 -38 -76 -45 -20 -18 -29 -18 -29 1 0 8 5 15 10 15 6 0 10 7 10 15 0 8
5 15 10 15 6 0 10 5 10 10 0 6 -18 10 -40 10 -22 0 -40 3 -40 7 0 4 21 30 48
57 47 50 37 47 -27 -8 -32 -27 -35 -27 -42 -10 -4 11 -8 31 -8 47 -1 22 -6 27
-26 27 -14 0 -33 4 -43 9 -9 5 -25 12 -35 15 -14 4 -17 14 -14 42 4 36 19 54
46 54 9 0 12 -9 9 -30 -5 -35 4 -38 39 -10 14 11 21 20 15 20 -15 0 -22 25
-13 56 5 18 10 24 15 16 9 -14 26 -16 26 -3 0 5 -10 13 -22 17 -32 10 -58 45
-51 69 3 11 16 31 29 46 25 26 32 59 13 59 -7 0 -17 8 -24 17 -9 12 -25 16
-58 15 -33 -2 -46 2 -51 14 -5 14 -8 14 -28 0 -12 -9 -35 -16 -50 -16 -15 0
-30 -5 -34 -11 -3 -6 -17 -8 -31 -4 -14 3 -23 2 -21 -2 3 -4 11 -22 18 -39 7
-17 22 -36 31 -43 16 -9 21 -7 35 14 18 28 59 34 68 10 3 -8 16 -20 29 -26 22
-10 22 -13 13 -55 -8 -31 -16 -44 -28 -44 -9 0 -20 -5 -24 -11 -3 -6 -17 -8
-30 -5 -26 7 -31 -3 -13 -21 6 -6 8 -16 4 -23 -13 -21 -35 11 -35 51 0 40 -9
49 -29 25 -8 -10 -5 -27 16 -72 18 -39 29 -53 31 -41 5 22 28 16 24 -6 -1 -9
6 -22 18 -29 21 -14 28 -48 9 -48 -6 0 -9 -8 -7 -18 4 -15 -4 -21 -41 -32 -25
-8 -50 -15 -56 -15 -31 -2 -156 -48 -177 -65 -14 -10 -35 -47 -48 -81 -12 -35
-39 -80 -61 -104 -22 -24 -42 -57 -45 -76 -4 -19 -17 -45 -29 -59 -12 -14 -25
-33 -28 -43 -6 -16 -19 -17 -139 -13 -162 5 -171 8 -162 50 4 17 13 36 22 42
10 7 11 13 4 18 -18 11 2 61 26 62 12 1 28 7 37 14 11 9 19 10 28 1 10 -8 21
-2 47 24 19 19 30 38 26 42 -4 5 -38 -9 -75 -29 l-68 -37 -32 30 c-18 16 -36
29 -42 29 -5 0 -9 7 -9 15 0 9 6 12 15 9 10 -4 15 0 15 15 0 22 27 41 59 41
12 0 21 4 21 8 0 4 13 16 30 25 16 10 30 23 30 28 0 17 34 48 76 69 l39 20
-38 -6 c-32 -5 -42 -2 -63 17 -22 20 -27 22 -34 9 -12 -21 -96 -110 -104 -110
-3 0 -6 15 -6 33 -1 35 -1 35 -45 -27 -13 -18 -29 -23 -77 -25 -10 -1 -18 -8
-18 -16 0 -13 -4 -14 -20 -5 -28 15 -37 7 -51 -43 -7 -23 -22 -53 -33 -66
l-21 -24 22 6 c24 5 41 -7 24 -18 -6 -3 -8 -12 -4 -20 3 -8 0 -15 -7 -15 -6 0
-9 4 -6 8 3 5 -6 15 -19 22 -14 7 -25 17 -25 22 0 5 -5 6 -11 3 -7 -5 -4 -14
7 -26 9 -10 14 -19 10 -19 -4 0 -1 -7 6 -15 36 -39 38 -45 32 -88 l-6 -44 -52
5 c-28 2 -56 11 -63 19 -10 12 -12 12 -21 -3 -6 -10 -12 -13 -16 -6 -3 6 0 16
7 24 7 7 16 21 20 31 4 10 12 15 17 12 8 -5 7 -12 -2 -23 -12 -15 -11 -16 4
-3 21 16 23 34 6 53 -7 7 -14 22 -16 33 -2 11 -7 38 -12 60 -7 35 -9 37 -15
18 -10 -31 -25 -29 -23 2 1 14 8 25 15 25 15 0 18 26 3 35 -5 3 -7 12 -3 21 4
12 8 12 21 2 13 -11 15 -10 9 4 -4 11 0 21 11 27 16 10 16 10 -1 11 -10 0 -16
4 -12 10 3 5 12 7 19 4 9 -4 18 7 26 33 7 21 18 41 23 45 7 4 6 12 -2 22 -12
14 -9 16 19 16 19 0 42 -8 53 -17 19 -17 20 -17 14 0 -5 13 -1 17 21 17 28 1
72 30 72 48 0 6 14 13 31 17 19 4 34 16 39 30 5 13 18 29 29 35 24 12 61 79
61 109 0 10 7 22 16 25 9 3 14 12 11 20 -3 8 5 23 19 35 13 11 24 25 24 30 0
5 9 7 19 4 13 -3 23 2 31 17 11 20 10 21 -9 11 -11 -6 -24 -10 -28 -10 -4 1
-21 -3 -36 -9 -16 -7 -35 -12 -43 -12 -8 0 -14 -6 -14 -14 0 -29 -21 -27 -34
4 -11 27 -14 29 -25 16 -10 -12 -16 -13 -32 -3 -10 6 -19 17 -19 23 0 7 -8 10
-20 7 -11 -3 -17 -10 -13 -16 3 -6 1 -7 -6 -3 -6 4 -25 1 -42 -8 -16 -8 -37
-12 -45 -9 -8 3 -14 -1 -14 -10 0 -8 -21 -25 -47 -38 -80 -39 -91 -42 -58 -14
17 14 41 34 53 45 13 11 29 20 35 20 7 0 46 20 88 44 42 24 90 49 106 56 26
12 29 16 17 28 -16 15 -9 59 13 80 8 8 13 36 13 69 l0 55 30 -4 c19 -3 30 0
30 8 0 7 -8 10 -20 7 -14 -4 -20 0 -20 11 0 16 20 21 72 17 20 -2 31 5 43 26
l16 28 -4 -31 -3 -32 32 17 c18 9 35 24 37 34 6 22 27 23 27 1 0 -14 3 -14 15
-4 18 15 20 37 3 43 -8 2 -9 8 -4 13 5 5 11 4 13 -3 3 -7 11 -13 19 -13 8 0
14 -4 14 -9 0 -5 9 -11 20 -14 11 -3 20 -1 20 4 0 5 -4 9 -10 9 -16 0 -12 22
8 36 15 12 15 15 2 24 -8 5 -13 10 -10 11 3 0 15 2 27 5 29 5 37 -10 17 -31
-21 -20 -16 -25 19 -18 28 6 38 37 15 46 -8 4 -7 6 4 6 9 1 23 -6 32 -14 9 -9
17 -11 21 -5 10 16 25 12 25 -7 1 -17 1 -17 14 0 10 13 24 17 50 14 20 -2 36
0 36 4 0 5 -6 9 -12 9 -8 1 -6 6 5 14 11 9 15 20 10 31 -4 13 -3 16 6 11 7 -5
21 0 32 10 10 9 21 15 24 12 8 -7 -5 -38 -16 -38 -5 0 -9 -6 -9 -14 0 -8 -8
-17 -17 -19 -10 -3 -4 -5 14 -6 26 -1 30 2 26 19 -4 14 0 20 11 20 10 0 15 -4
12 -9 -3 -5 1 -12 10 -15 24 -9 31 -7 14 4 -13 8 -11 11 7 16 12 3 24 13 28
22 6 15 8 15 21 -3 15 -20 15 -20 35 4 17 21 22 22 30 10 8 -12 11 -11 23 4
18 23 35 22 29 -2 -4 -16 0 -19 26 -17 16 1 39 10 51 21 11 10 20 13 20 7 0
-16 37 -15 46 0 5 8 9 6 14 -6 6 -17 7 -17 22 -2 16 15 18 15 27 -1 10 -17 12
-17 26 1 10 13 11 23 5 31 -5 7 -7 15 -3 18 14 14 22 6 29 -28 5 -30 8 -33 21
-20 14 14 28 19 47 16 4 -1 14 4 22 10 8 7 18 9 21 5 4 -4 1 -12 -7 -17 -12
-9 -12 -10 3 -5 10 3 23 6 29 6 6 0 8 7 4 15 -3 9 0 15 8 15 20 0 56 35 56 56
0 13 3 15 11 7 8 -8 7 -16 -2 -31 -11 -17 -10 -23 1 -38 14 -15 15 -15 20 6 3
13 12 26 19 28 9 3 11 -2 7 -16 -5 -15 -2 -22 14 -27 25 -8 62 3 55 16 -8 13
9 11 22 -2 8 -8 17 -8 31 0 10 6 22 7 26 3 4 -3 12 0 17 8 8 11 12 12 16 3 2
-7 9 -13 14 -13 6 0 7 4 4 10 -8 12 12 50 27 50 5 0 8 -8 6 -18 -4 -15 1 -19
23 -19 24 0 27 3 17 14 -9 11 -8 17 3 24 10 6 15 3 17 -13 3 -19 8 -20 57 -15
48 5 55 3 60 -14 4 -12 13 -18 21 -15 8 3 14 1 14 -4 0 -6 7 -10 15 -10 8 0
12 6 10 13 -7 19 8 35 40 42 29 6 29 6 10 -10 -14 -12 -16 -19 -7 -22 6 -3 10
-8 7 -13 -2 -4 8 -7 23 -7 15 0 22 2 16 4 -12 4 -7 43 5 43 3 0 14 -11 24 -24
16 -21 25 -24 70 -21 31 2 55 9 62 19 12 16 42 16 53 0 9 -12 46 -18 38 -6 -3
5 4 12 15 15 15 4 23 0 26 -14 7 -25 29 -25 36 1 6 23 27 27 27 5 0 -8 -5 -15
-12 -15 -6 0 -8 -3 -4 -7 4 -5 14 1 22 11 7 11 17 17 20 13 4 -4 13 -2 20 4
14 11 34 4 34 -12 0 -5 -8 -9 -17 -10 -15 0 -15 -2 2 -9 27 -11 37 -12 31 -1
-3 4 50 8 117 7 109 -2 122 -4 125 -20 3 -14 10 -17 33 -12 15 3 30 2 33 -3 3
-4 19 -6 37 -3 20 3 35 0 41 -9 8 -11 9 -11 5 2 -5 14 1 17 29 16 19 -1 34 -6
34 -13 0 -14 52 -26 64 -14 5 5 18 4 30 -2 26 -14 119 -13 124 2 6 17 17 11
36 -21 15 -25 23 -30 43 -24 15 3 31 0 41 -7 13 -11 15 -10 10 10 -4 15 -2 22
8 22 8 0 14 -7 14 -15 0 -8 9 -15 20 -15 11 0 20 -7 20 -15 0 -31 20 -14 21
18 0 29 1 30 9 9 5 -12 18 -25 27 -29 10 -4 21 -11 26 -17 5 -7 11 -5 18 7 14
24 32 12 19 -13 -13 -24 -13 -33 0 -25 5 3 19 1 31 -5 16 -9 24 -9 33 1 8 9 7
10 -8 5 -14 -5 -17 -3 -12 10 4 9 2 22 -4 29 -8 9 -6 14 6 19 10 4 21 1 25 -6
7 -10 12 -11 29 0 38 23 44 12 10 -18 -27 -22 -31 -29 -17 -30 10 0 20 7 23
15 7 16 44 21 44 5 0 -5 -9 -14 -21 -20 -60 -33 88 -62 175 -35 28 8 59 12 69
9 14 -4 25 1 37 16 l18 23 28 -28 c23 -23 31 -26 46 -16 22 14 28 14 28 0 0
-16 -31 -38 -54 -39 -19 0 -19 -1 -1 -20 10 -12 25 -18 32 -15 8 2 11 1 8 -4
-3 -5 -1 -12 4 -15 9 -6 24 24 26 48 1 20 25 17 25 -3 0 -22 20 -30 20 -8 0 6
5 4 11 -5 5 -10 17 -18 24 -18 12 0 11 -4 -4 -19 -10 -10 -25 -21 -32 -24 -8
-3 -5 -6 9 -6 12 -1 22 4 22 10 0 6 8 8 19 4 12 -4 21 0 25 11 5 14 9 14 22 3
13 -10 17 -10 25 2 5 9 9 10 9 2 0 -6 -5 -15 -10 -18 -6 -4 -8 -11 -4 -16 4
-6 11 -6 19 1 10 8 14 7 18 -2 4 -10 8 -10 16 2 8 11 13 12 19 3 10 -16 164
-15 175 1 5 8 9 8 15 -1 5 -8 63 -13 190 -15 179 -3 183 -3 188 -25 3 -12 12
-27 20 -34 11 -9 13 29 14 240 l0 251 -3330 0 -3330 0 0 -1702z m3400 1661 c0
-5 -4 -9 -10 -9 -5 0 -10 7 -10 16 0 8 5 12 10 9 6 -3 10 -10 10 -16z m330 7
c0 -11 -19 -15 -25 -6 -3 5 1 10 9 10 9 0 16 -2 16 -4z m635 -16 c3 -5 1 -10
-4 -10 -6 0 -11 5 -11 10 0 6 2 10 4 10 3 0 8 -4 11 -10z m-1560 -40 c3 -5 1
-10 -4 -10 -6 0 -11 5 -11 10 0 6 2 10 4 10 3 0 8 -4 11 -10z m3480 1 c3 -5 1
-12 -5 -16 -5 -3 -10 1 -10 9 0 18 6 21 15 7z m-1565 -11 c0 -5 -4 -10 -10
-10 -5 0 -10 5 -10 10 0 6 5 10 10 10 6 0 10 -4 10 -10z m299 -17 c2 -2 -3 -3
-11 -3 -9 0 -19 7 -22 16 -6 15 -4 15 11 3 10 -7 20 -15 22 -16z m471 -13 c0
-5 -2 -10 -4 -10 -3 0 -8 5 -11 10 -3 6 -1 10 4 10 6 0 11 -4 11 -10z m-570
-10 c0 -5 -4 -10 -10 -10 -5 0 -10 5 -10 10 0 6 5 10 10 10 6 0 10 -4 10 -10z
m250 0 c0 -5 -4 -10 -10 -10 -5 0 -10 5 -10 10 0 6 5 10 10 10 6 0 10 -4 10
-10z m-2840 -41 c0 -6 -4 -7 -10 -4 -5 3 -10 11 -10 16 0 6 5 7 10 4 6 -3 10
-11 10 -16z m3150 -4 c0 -8 -4 -15 -10 -15 -5 0 -10 7 -10 15 0 8 5 15 10 15
6 0 10 -7 10 -15z m280 6 c0 -6 -4 -13 -10 -16 -5 -3 -10 1 -10 9 0 9 5 16 10
16 6 0 10 -4 10 -9z m175 -41 c-3 -5 -10 -10 -16 -10 -5 0 -9 5 -9 10 0 6 7
10 16 10 8 0 12 -4 9 -10z m-262 -16 c-23 -17 -33 -17 -33 0 0 8 10 14 25 14
23 0 24 -2 8 -14z m221 -15 c-3 -5 -10 -7 -15 -3 -5 3 -7 10 -3 15 3 5 10 7
15 3 5 -3 7 -10 3 -15z m-374 -7 c0 -5 -6 -16 -13 -27 -16 -20 -33 -5 -23 20
6 16 36 21 36 7z m345 -2 c3 -5 1 -10 -4 -10 -6 0 -11 5 -11 10 0 6 2 10 4 10
3 0 8 -4 11 -10z m435 -40 c0 -5 -2 -10 -4 -10 -3 0 -8 5 -11 10 -3 6 -1 10 4
10 6 0 11 -4 11 -10z m-420 -21 c0 -5 -4 -9 -10 -9 -5 0 -10 7 -10 16 0 8 5
12 10 9 6 -3 10 -10 10 -16z m-3870 7 c0 -3 -4 -8 -10 -11 -5 -3 -10 -1 -10 4
0 6 5 11 10 11 6 0 10 -2 10 -4z m3940 -6 c0 -5 -4 -10 -10 -10 -5 0 -10 5
-10 10 0 6 5 10 10 10 6 0 10 -4 10 -10z m110 -9 c0 -12 -29 -23 -41 -15 -5 3
-7 10 -4 15 8 12 45 12 45 0z m210 -32 c0 -6 -4 -7 -10 -4 -5 3 -10 11 -10 16
0 6 5 7 10 4 6 -3 10 -11 10 -16z m-226 -31 c-3 -5 -12 -4 -20 3 -7 6 -11 15
-8 21 3 5 12 4 20 -3 7 -6 11 -15 8 -21z m86 0 c0 -6 -7 -7 -16 -4 -9 3 -20 6
-25 6 -6 0 -8 4 -5 9 8 12 46 2 46 -11z m-4275 -98 c3 -5 1 -10 -4 -10 -6 0
-11 5 -11 10 0 6 2 10 4 10 3 0 8 -4 11 -10z m-22 -125 c1 -5 -6 -11 -15 -13
-11 -2 -18 3 -18 13 0 17 30 18 33 0z m-18 -125 c3 -5 1 -10 -4 -10 -6 0 -11
5 -11 10 0 6 2 10 4 10 3 0 8 -4 11 -10z m115 -58 c0 -5 -12 -19 -26 -31 l-26
-22 7 23 c10 30 45 53 45 30z m-430 -37 c0 -2 -10 -9 -22 -15 -22 -11 -22 -10
-4 4 21 17 26 19 26 11z m1253 -89 c5 -13 -10 -36 -24 -36 -4 0 -6 11 -5 25 1
27 20 34 29 11z m-1140 -126 c-3 -11 -12 -20 -21 -20 -13 0 -12 3 3 20 10 11
19 20 21 20 1 0 0 -9 -3 -20z m1161 -115 c9 -21 22 -35 33 -36 10 -1 2 -5 -17
-9 -19 -4 -43 -11 -52 -15 -15 -6 -18 -2 -18 28 0 20 -3 42 -6 51 -5 12 0 16
20 16 20 0 29 -8 40 -35z m-930 -104 c3 -4 -1 -16 -8 -26 -13 -18 -15 -18 -30
-2 -10 9 -14 21 -11 27 8 12 42 13 49 1z m946 -12 c0 -6 -4 -7 -10 -4 -5 3
-10 11 -10 16 0 6 5 7 10 4 6 -3 10 -11 10 -16z m-1027 -23 c25 -19 21 -26
-11 -17 -21 6 -34 4 -51 -11 -13 -10 -26 -16 -29 -13 -8 7 19 35 34 35 8 0 14
5 14 10 0 14 22 12 43 -4z m21 -93 c4 -10 1 -20 -9 -25 -8 -5 -15 -15 -15 -21
0 -7 -9 -13 -20 -14 -30 -3 -28 54 3 67 31 12 34 12 41 -7z m-340 -17 c-3 -9
-10 -13 -15 -10 -5 3 -3 11 4 19 15 16 19 13 11 -9z m64 -4 c5 -33 -39 -121
-60 -122 -12 0 -18 8 -18 21 0 12 5 19 12 17 20 -7 58 73 46 96 -8 14 -7 17 4
14 7 -3 14 -14 16 -26z m245 -98 c-2 -6 1 -15 6 -19 14 -8 4 -25 -14 -25 -9 0
-12 6 -9 15 4 10 0 15 -14 15 -26 0 -39 19 -21 31 8 5 16 3 21 -4 5 -8 9 -6
14 7 5 13 9 14 14 5 5 -7 6 -18 3 -25z m497 -136 c0 -51 -5 -47 -14 10 -4 29
-3 41 4 37 5 -3 10 -25 10 -47z m7 -85 c-3 -10 -5 -4 -5 12 0 17 2 24 5 18 2
-7 2 -21 0 -30z m233 -158 l26 -80 59 -7 c46 -6 62 -4 75 7 22 20 75 19 95 -2
26 -25 35 -59 35 -124 0 -70 -20 -124 -49 -134 -32 -10 -43 3 -26 29 19 29 30
106 20 143 -8 27 -8 27 -16 -14 -10 -54 -44 -100 -84 -113 -42 -14 -216 -5
-227 12 -13 21 -10 25 32 42 38 15 47 25 35 38 -3 3 -31 -5 -62 -18 -51 -20
-58 -21 -68 -7 -7 9 -17 13 -23 9 -6 -4 -12 9 -16 34 -3 22 -9 59 -12 81 -4
26 -3 39 4 35 10 -6 102 86 142 143 17 24 25 30 29 20 3 -8 17 -50 31 -94z
m1670 81 c0 -2 -8 -10 -17 -17 -16 -13 -17 -12 -4 4 13 16 21 21 21 13z
m-2845 -77 c9 -13 -3 -59 -14 -59 -13 0 -22 30 -16 51 7 21 20 25 30 8z m2030
-35 c-23 -36 -29 -24 -8 17 9 18 18 28 21 21 2 -7 -4 -24 -13 -38z m-39 -66
c-6 -34 -31 -100 -44 -118 -2 -3 -102 99 -102 105 0 5 86 17 113 16 15 0 27 4
27 9 0 6 2 10 5 10 3 0 3 -10 1 -22z m-506 -26 c0 -13 -3 -12 -15 4 -19 25
-19 40 0 24 8 -7 15 -20 15 -28z m140 -18 c18 -25 30 -48 27 -51 -3 -2 -11 5
-17 17 -6 12 -18 19 -25 16 -7 -2 -16 2 -19 10 -3 9 -10 13 -16 9 -5 -3 -19
-1 -30 5 -16 9 -20 8 -20 -6 0 -23 -6 -15 -14 19 -6 26 -5 27 38 27 42 0 47
-3 76 -46z m97 2 c15 -13 25 -27 21 -31 -4 -4 -21 4 -38 19 -17 14 -37 26 -43
26 -7 0 0 -8 15 -17 23 -15 56 -63 43 -63 -3 0 -25 20 -48 45 l-44 45 33 0
c20 0 44 -9 61 -24z m130 2 c23 -22 31 -48 14 -48 -5 0 -16 -6 -24 -14 -12
-13 -21 -8 -63 35 l-48 49 49 0 c36 0 55 -6 72 -22z m-1985 -50 c-6 -6 -8 -1
-7 14 3 32 7 36 12 14 3 -10 1 -22 -5 -28z m3182 -23 c19 -15 19 -15 -3 -15
-12 0 -20 4 -17 9 4 5 0 12 -6 14 -7 3 -8 6 -3 6 6 0 19 -6 29 -14z m29 -42
c-7 -2 -13 -13 -13 -24 0 -10 -4 -19 -9 -19 -5 0 -8 11 -7 25 1 18 6 25 21 24
11 0 14 -3 8 -6z m-2039 -12 c3 -4 -6 -21 -19 -37 -20 -23 -25 -25 -25 -11 0
19 21 57 32 57 4 0 9 -4 12 -9z m893 -13 c-3 -8 -6 -5 -6 6 -1 11 2 17 5 13 3
-3 4 -12 1 -19z m-1893 -30 c3 -24 10 -71 15 -106 11 -70 23 -92 55 -93 17 0
15 -3 -9 -11 -16 -6 -36 -16 -44 -22 -11 -8 -13 -8 -10 3 7 21 -35 63 -55 55
-9 -3 -23 -3 -32 0 -15 6 -15 8 1 26 10 11 14 20 9 20 -5 0 -15 14 -21 31 -13
34 -3 54 27 54 8 0 15 9 15 19 0 11 7 21 15 23 13 4 13 3 0 -7 -13 -10 -13
-11 0 -7 10 3 14 14 12 31 -5 44 15 29 22 -16z m-1242 -10 c-7 -7 -12 -8 -12
-2 0 14 12 26 19 19 2 -3 -1 -11 -7 -17z m2381 2 c10 0 17 -7 17 -17 -1 -25
-24 -53 -44 -53 -8 0 -21 -9 -28 -20 -10 -16 -24 -20 -65 -20 -31 0 -53 4 -53
11 0 20 51 77 83 93 18 9 41 14 52 11 11 -3 28 -5 38 -5z m-2420 -35 c-3 -9
-8 -14 -10 -11 -3 3 -2 9 2 15 9 16 15 13 8 -4z m2577 0 c10 -12 10 -15 -4
-15 -9 0 -16 7 -16 15 0 8 2 15 4 15 2 0 9 -7 16 -15z m587 -107 c-3 -8 -6 -5
-6 6 -1 11 2 17 5 13 3 -3 4 -12 1 -19z m-698 -113 c-14 -14 -155 -52 -163
-45 -12 11 30 28 98 39 68 12 70 12 65 6z m1251 -104 c0 -8 -21 -35 -48 -60
-86 -83 -94 -98 -86 -144 4 -23 6 -58 5 -77 -1 -20 5 -55 13 -78 13 -37 13
-47 0 -87 -9 -25 -20 -47 -24 -50 -16 -10 -44 47 -41 80 1 18 -2 36 -8 39 -6
4 -8 13 -5 21 4 8 -3 46 -15 84 -36 117 -28 171 29 199 21 10 50 33 65 50 14
17 36 32 48 34 45 6 67 3 67 -11z m-1380 -1 c0 -5 -8 -10 -17 -10 -15 0 -16 2
-3 10 19 12 20 12 20 0z m-1060 -66 c0 -8 -4 -12 -10 -9 -5 3 -10 10 -10 16 0
5 5 9 10 9 6 0 10 -7 10 -16z m1664 -28 c-10 -8 -21 -12 -23 -10 -3 2 4 11 15
18 10 8 21 12 23 10 3 -2 -4 -11 -15 -18z m386 -124 c0 -16 -6 -36 -13 -46
-12 -17 -14 -16 -24 7 -10 20 -9 26 3 31 8 3 14 12 14 21 0 8 5 15 10 15 6 0
10 -13 10 -28z m556 -70 c31 -21 11 -89 -40 -131 -20 -17 -25 -12 -60 50 -25
46 -25 47 -6 64 11 10 23 16 26 13 3 -3 17 -2 32 2 36 11 35 11 48 2z m-518
-31 c3 -8 -1 -12 -9 -9 -7 2 -15 10 -17 17 -3 8 1 12 9 9 7 -2 15 -10 17 -17z
m-2873 -251 c-3 -5 -11 -10 -16 -10 -6 0 -7 5 -4 10 3 6 11 10 16 10 6 0 7 -4
4 -10z m74 -14 c-2 -2 -14 -9 -26 -15 -19 -10 -23 -9 -23 4 0 10 9 15 27 15
14 0 24 -2 22 -4z m61 -28 c0 -13 -25 -20 -57 -16 l-28 4 25 11 c29 12 60 13
60 1z m-570 -2 c0 -3 -4 -8 -10 -11 -5 -3 -10 -1 -10 4 0 6 5 11 10 11 6 0 10
-2 10 -4z m-15 -36 c3 -5 -1 -10 -10 -10 -9 0 -13 5 -10 10 3 6 8 10 10 10 2
0 7 -4 10 -10z m653 -45 l2 -40 -30 33 c-17 17 -35 32 -41 32 -5 0 -9 5 -9 11
0 6 16 9 37 7 36 -3 38 -5 41 -43z m-572 8 c-3 -10 -8 -30 -11 -44 -4 -15 -20
-39 -36 -55 -32 -31 -34 -29 -18 13 6 15 12 36 15 47 4 21 33 56 46 56 5 0 7
-8 4 -17z m4244 -49 c0 -8 -4 -12 -10 -9 -5 3 -10 13 -10 21 0 8 5 12 10 9 6
-3 10 -13 10 -21z m-4366 -25 c-7 -11 -34 -12 -34 -1 0 14 11 21 26 15 8 -3
11 -9 8 -14z m106 -48 c0 -5 -9 -19 -21 -32 -16 -19 -19 -20 -15 -6 3 10 6 25
6 33 0 8 7 14 15 14 8 0 15 -4 15 -9z m-22 -80 c-23 -30 -38 -39 -38 -22 0 9
47 51 57 51 3 0 -6 -13 -19 -29z m4179 7 c-3 -8 -6 -5 -6 6 -1 11 2 17 5 13 3
-3 4 -12 1 -19z m-3667 -197 c0 -13 -55 -33 -82 -29 -24 5 -24 5 37 26 40 13
45 14 45 3z m3526 -17 c-3 -9 -6 -21 -7 -27 0 -7 -4 -3 -8 8 -9 22 -5 35 11
35 5 0 7 -7 4 -16z m-3561 -104 c-3 -5 -11 -10 -16 -10 -6 0 -7 5 -4 10 3 6
11 10 16 10 6 0 7 -4 4 -10z m-85 -109 c0 -5 23 -12 50 -16 38 -5 56 -3 74 9
23 14 24 14 19 -5 -11 -39 -83 -78 -83 -44 0 8 -6 15 -12 15 -7 0 -31 11 -53
25 -33 20 -36 24 -17 25 12 0 22 -4 22 -9z m230 -41 c0 -5 -7 -10 -15 -10 -8
0 -15 5 -15 10 0 6 7 10 15 10 8 0 15 -4 15 -10z m133 -12 c7 -24 1 -38 -15
-38 -5 0 -8 6 -5 14 3 8 1 16 -5 18 -12 4 -2 28 11 28 5 0 11 -10 14 -22z
m-495 -48 c12 -50 7 -51 -13 -4 -18 43 -18 44 -6 44 5 0 13 -18 19 -40z m80
-68 c20 -30 11 -28 -19 4 -13 15 -18 25 -10 22 8 -2 21 -14 29 -26z m2472
-313 c0 -6 -4 -7 -10 -4 -5 3 -10 11 -10 16 0 6 5 7 10 4 6 -3 10 -11 10 -16z
m-2440 -94 c7 -9 8 -15 2 -15 -5 0 -12 7 -16 15 -3 8 -4 15 -2 15 2 0 9 -7 16
-15z m2442 -15 c3 -16 1 -30 -4 -30 -4 0 -8 14 -8 30 0 17 2 30 4 30 2 0 6
-13 8 -30z m803 -700 c3 -5 1 -10 -4 -10 -6 0 -11 5 -11 10 0 6 2 10 4 10 3 0
8 -4 11 -10z m-355 -64 c0 -2 -7 -7 -16 -10 -8 -3 -12 -2 -9 4 6 10 25 14 25
6z"/>
<path d="M2324 4676 c-16 -14 -24 -26 -18 -26 17 0 60 37 53 45 -4 3 -20 -5
-35 -19z"/>
<path d="M2690 4665 c7 -9 15 -13 17 -11 7 7 -7 26 -19 26 -6 0 -6 -6 2 -15z"/>
<path d="M2375 4649 c-4 -6 -4 -13 -1 -16 3 -4 -11 -17 -32 -29 -44 -28 -41
-29 25 -9 43 13 51 19 51 40 0 17 -6 25 -19 25 -10 0 -21 -5 -24 -11z"/>
<path d="M3185 6560 c-3 -5 3 -10 14 -10 12 0 21 5 21 10 0 6 -6 10 -14 10 -8
0 -18 -4 -21 -10z"/>
<path d="M5110 6440 c0 -5 5 -10 11 -10 5 0 7 5 4 10 -3 6 -8 10 -11 10 -2 0
-4 -4 -4 -10z"/>
<path d="M2710 6391 c-48 -10 -78 -27 -123 -70 -46 -43 -68 -91 -61 -129 5
-22 17 -32 62 -50 32 -13 64 -26 72 -28 9 -3 43 13 77 35 33 23 67 41 75 41
17 0 88 -66 88 -80 0 -6 5 -10 10 -10 13 0 13 33 -2 64 -10 23 -8 29 15 50 31
29 35 50 10 43 -78 -21 -91 -15 -52 24 13 13 19 29 16 41 -4 14 -2 18 9 14 8
-3 14 -2 14 3 0 32 -139 67 -210 52z"/>
<path d="M5589 6351 c12 -8 98 -7 107 1 2 3 -24 5 -59 6 -38 1 -57 -2 -48 -7z"/>
<path d="M5725 6300 c3 -5 13 -10 21 -10 8 0 12 5 9 10 -3 6 -13 10 -21 10 -8
0 -12 -4 -9 -10z"/>
<path d="M5850 6280 c-13 -11 -19 -20 -13 -20 14 0 49 28 42 34 -3 3 -16 -3
-29 -14z"/>
<path d="M3588 6273 c6 -2 18 -2 25 0 6 3 1 5 -13 5 -14 0 -19 -2 -12 -5z"/>
<path d="M5745 6270 c-3 -6 1 -7 9 -4 18 7 21 14 7 14 -6 0 -13 -4 -16 -10z"/>
<path d="M3230 6230 l-25 -20 23 0 c13 0 22 6 22 15 0 17 16 20 25 5 9 -14 42
-12 48 3 8 21 -64 19 -93 -3z"/>
<path d="M3060 6188 l-25 -10 26 -8 c14 -4 34 -12 45 -18 13 -7 26 -7 35 -1
12 7 12 9 -1 9 -9 0 -22 9 -30 20 -16 23 -16 23 -50 8z"/>
<path d="M6636 6124 c-11 -29 -6 -91 8 -103 11 -10 14 -1 14 54 0 62 -9 83
-22 49z"/>
<path d="M2670 6065 c-51 -19 -50 -35 4 -35 42 0 46 2 46 25 0 28 -1 28 -50
10z"/>
<path d="M3046 6061 c-5 -7 -3 -18 3 -24 14 -14 20 -6 11 17 -5 15 -9 16 -14
7z"/>
<path d="M2937 6015 c-13 -9 -17 -20 -12 -35 6 -20 8 -20 24 -6 10 9 23 16 29
16 6 0 16 9 22 20 10 18 8 20 -17 20 -15 0 -36 -7 -46 -15z"/>
<path d="M2155 6010 c-3 -6 1 -7 9 -4 18 7 21 14 7 14 -6 0 -13 -4 -16 -10z"/>
<path d="M2369 5951 c-81 -37 -93 -74 -30 -91 21 -5 44 -17 51 -25 7 -8 16
-12 21 -9 16 9 10 24 -13 34 -22 8 -22 9 4 9 l27 1 -15 36 c-8 20 -10 33 -5
29 6 -3 11 0 11 9 0 8 6 17 13 19 6 3 3 5 -8 5 -11 0 -36 -7 -56 -17z"/>
<path d="M3002 5946 c16 -11 16 -15 2 -35 -25 -35 -11 -45 14 -11 27 36 23 60
-10 60 -21 -1 -22 -2 -6 -14z"/>
<path d="M3075 5870 c-4 -6 7 -10 27 -10 25 0 29 3 18 10 -19 13 -37 13 -45 0z"/>
<path d="M2125 5802 c-8 -8 5 -22 21 -22 8 0 14 6 14 13 0 13 -25 19 -35 9z"/>
<path d="M5099 5797 c-80 -30 -160 -113 -191 -199 -22 -61 -26 -187 -8 -262
13 -60 59 -155 106 -219 33 -46 65 -67 45 -29 -5 9 -12 40 -16 67 -4 28 -12
58 -17 68 -14 27 -13 116 2 175 11 42 11 56 0 79 -20 43 -29 103 -16 103 14 0
46 -55 46 -79 0 -27 29 -48 100 -73 36 -12 67 -24 69 -25 3 -2 6 -19 7 -38 3
-34 -9 -47 -20 -22 -4 6 -4 1 -1 -13 2 -14 5 -33 5 -42 0 -12 8 -18 25 -18 14
0 25 5 25 11 0 7 8 17 17 24 15 12 16 15 1 36 -8 14 -19 39 -22 57 -4 17 -15
36 -23 41 -14 7 -14 10 4 19 11 6 42 14 69 17 47 7 52 5 81 -24 21 -21 41 -31
62 -31 16 0 33 -5 36 -11 4 -5 12 -8 18 -6 7 2 20 -2 30 -11 16 -14 17 -13 17
21 0 23 -7 44 -20 57 -27 27 -9 33 22 7 15 -12 33 -42 42 -67 8 -25 15 -36 16
-24 0 11 -9 47 -21 81 l-20 61 -50 6 c-27 4 -49 11 -49 15 0 5 -14 24 -32 42
-17 19 -44 55 -60 81 -64 103 -188 158 -279 125z"/>
<path d="M2070 5760 c-17 -13 -20 -20 -10 -20 8 0 21 9 28 20 15 25 13 25 -18
0z"/>
<path d="M1934 5706 c-16 -18 -36 -56 -28 -56 18 0 50 37 45 52 -5 12 -9 13
-17 4z"/>
<path d="M1848 5628 c-31 -16 -38 -26 -38 -49 0 -19 -5 -29 -15 -29 -18 0 -19
14 -4 42 6 11 8 22 5 25 -9 9 -71 -49 -71 -67 -1 -10 -13 -34 -28 -54 l-28
-36 23 1 c13 0 30 -1 38 -2 46 -7 58 1 65 41 4 23 12 40 20 40 7 0 29 19 49
43 31 37 38 41 55 30 18 -11 31 -8 31 8 0 5 -59 32 -64 28 -1 0 -18 -9 -38
-21z"/>
<path d="M2330 5601 c0 -12 28 -22 35 -12 3 5 -2 12 -11 15 -21 8 -24 8 -24
-3z"/>
<path d="M2285 5560 c3 -5 8 -10 11 -10 2 0 4 5 4 10 0 6 -5 10 -11 10 -5 0
-7 -4 -4 -10z"/>
<path d="M2973 5433 c9 -2 23 -2 30 0 6 3 -1 5 -18 5 -16 0 -22 -2 -12 -5z"/>
<path d="M4240 5400 c0 -5 5 -10 10 -10 6 0 10 5 10 10 0 6 -4 10 -10 10 -5 0
-10 -4 -10 -10z"/>
<path d="M3920 5389 c0 -5 5 -7 10 -4 6 3 10 8 10 11 0 2 -4 4 -10 4 -5 0 -10
-5 -10 -11z"/>
<path d="M1530 5361 c0 -11 31 -24 39 -16 3 3 -1 10 -9 15 -19 12 -30 12 -30
1z"/>
<path d="M4355 5361 c-3 -5 -1 -12 5 -16 5 -3 10 1 10 9 0 18 -6 21 -15 7z"/>
<path d="M5598 5325 c2 -19 8 -38 13 -41 14 -8 11 -34 -3 -34 -10 0 -13 -31
-13 -122 0 -78 -5 -137 -14 -161 -17 -51 -67 -107 -95 -107 -32 0 -66 -11 -66
-21 0 -5 7 -9 15 -9 8 0 15 -4 15 -9 0 -5 8 -11 18 -14 11 -2 21 -14 25 -26
11 -42 -67 -23 -134 32 -45 37 -50 51 -13 37 39 -15 53 -11 17 5 -40 17 -47
59 -12 68 12 3 18 10 14 16 -3 6 -2 11 4 11 16 0 25 -22 11 -30 -22 -13 8 -22
50 -15 39 7 64 25 43 32 -7 3 -6 19 3 51 23 76 23 77 36 64 13 -13 48 -16 48
-4 -1 13 -35 49 -55 57 -11 4 -43 9 -71 11 -49 3 -51 2 -51 -23 0 -15 2 -20 7
-13 6 9 13 9 29 0 12 -6 31 -8 43 -4 18 5 20 3 13 -12 -4 -11 -11 -33 -16 -50
-10 -34 -35 -61 -46 -50 -4 4 -2 16 5 26 7 12 8 20 2 20 -5 0 -10 7 -10 17 0
14 -2 15 -17 1 -10 -8 -27 -18 -37 -22 -18 -6 -18 -7 -1 -20 18 -13 18 -14 -3
-25 -37 -20 -48 -13 -62 39 -7 28 -17 50 -21 50 -10 0 -35 -41 -48 -82 -12
-36 -11 -38 27 -75 41 -40 38 -30 57 -208 20 -180 25 -281 24 -449 -1 -180
-14 -375 -18 -268 -1 43 -6 48 -29 33 -31 -19 -39 -58 -39 -195 0 -75 -2 -139
-5 -141 -3 -3 -8 57 -11 133 -7 156 -19 272 -47 482 -11 80 -24 199 -30 265
l-10 120 27 23 28 23 -31 27 c-29 25 -31 29 -22 70 10 48 27 58 20 12 -7 -46
2 -60 34 -51 23 6 30 15 40 59 l11 53 -31 16 c-17 8 -44 31 -59 50 -16 18 -36
32 -45 31 -10 -2 -21 7 -27 20 -5 12 -14 21 -20 19 -24 -8 -63 -84 -68 -132
-3 -27 -3 -44 0 -37 9 23 21 12 28 -28 4 -22 11 -40 17 -40 6 0 8 -7 5 -15 -4
-8 -2 -17 3 -20 6 -4 10 -14 10 -24 0 -10 7 -24 16 -32 13 -10 17 -10 25 2 6
9 9 -4 9 -41 0 -30 5 -84 10 -120 5 -36 14 -120 19 -188 8 -99 7 -131 -4 -170
-16 -52 -20 -132 -5 -97 8 18 9 17 9 -8 1 -16 -3 -26 -9 -22 -14 8 -12 -26 6
-115 8 -41 18 -101 21 -132 5 -50 3 -58 -11 -58 -24 0 -46 60 -46 127 0 32 -7
130 -15 218 -8 88 -15 193 -15 232 0 63 -5 83 -34 140 -18 38 -37 82 -41 98
-8 38 -63 135 -76 135 -11 0 -11 -6 0 -28 22 -41 81 -171 81 -178 0 -7 -45 -1
-75 11 -15 6 -13 2 7 -16 22 -19 29 -36 33 -78 3 -29 9 -60 14 -69 7 -11 3
-21 -15 -35 -26 -20 -32 -52 -11 -60 7 -3 4 -6 -7 -6 -12 -1 -16 -6 -12 -17 4
-12 1 -14 -14 -9 -24 8 -25 -3 -5 -52 18 -43 19 -85 3 -101 -7 -7 -8 -12 -3
-12 5 0 0 -7 -11 -15 -19 -14 -18 -14 4 -15 26 0 28 -9 7 -36 -24 -31 -18 -37
32 -31 43 5 46 4 28 -9 -22 -16 -40 -18 -64 -5 -28 15 -160 -9 -172 -31 -6
-12 -6 -18 1 -18 5 0 10 4 10 9 0 16 94 20 150 6 l55 -14 -85 5 c-55 3 -90 1
-100 -6 -11 -9 -12 -13 -2 -17 6 -2 10 -8 7 -12 -2 -5 19 -11 47 -14 28 -4 56
-12 62 -18 8 -8 1 -10 -28 -7 -33 4 -36 3 -20 -9 10 -7 25 -13 34 -13 21 0
114 -59 106 -67 -3 -3 -14 1 -23 9 -22 18 -56 32 -48 18 7 -11 121 -100 129
-100 3 0 8 17 12 38 12 69 23 70 24 0 l0 -67 60 -50 c62 -52 102 -64 236 -70
10 -1 15 -15 30 -80 3 -15 42 -61 62 -74 6 -4 12 -19 12 -32 0 -13 5 -27 10
-30 18 -11 10 -25 -30 -50 -62 -39 -69 -35 -62 40 4 54 2 69 -13 85 -10 11
-21 20 -25 20 -11 0 -11 -67 1 -117 20 -86 20 -96 7 -104 -7 -5 -8 -9 -2 -9 6
0 21 12 35 26 13 14 51 39 83 56 52 26 60 28 68 14 11 -20 50 -21 86 -2 15 7
45 17 67 20 56 10 85 31 78 56 -3 11 -10 20 -15 20 -5 0 -6 -9 -3 -21 6 -18 4
-20 -17 -14 -28 9 -24 5 -32 33 -5 16 -3 22 8 22 27 0 35 31 15 51 -11 11 -22
19 -26 19 -4 0 -26 9 -50 21 -35 17 -46 19 -58 9 -13 -10 -19 -9 -35 5 -11 10
-23 15 -27 11 -12 -11 28 -75 51 -81 34 -10 66 -28 66 -37 0 -13 -51 1 -81 22
-18 13 -30 15 -36 9 -7 -7 -18 -1 -32 20 -22 30 -22 31 -4 62 17 29 17 31 1
40 -10 6 -18 16 -18 24 0 20 21 30 31 14 12 -20 19 -8 29 55 10 63 0 106 -25
106 -18 0 -18 -1 -6 -33 8 -20 5 -29 -17 -50 -15 -13 -42 -32 -60 -41 -18 -9
-38 -29 -45 -44 -11 -25 -12 -24 -15 30 -3 53 0 62 37 115 53 77 191 255 247
321 l45 52 -16 78 c-8 42 -22 99 -30 126 -8 27 -15 78 -15 113 0 60 1 64 20
58 11 -3 20 -2 20 4 0 5 -10 11 -22 13 -25 3 -30 29 -29 148 0 97 10 139 36
156 22 15 26 15 41 0 8 -9 21 -13 27 -9 6 4 8 0 4 -9 -4 -12 -1 -14 13 -11 10
3 21 0 24 -6 12 -20 43 -12 54 14 6 14 19 25 27 25 14 0 14 -3 0 -31 -9 -16
-23 -33 -31 -36 -7 -3 -14 -11 -14 -19 0 -8 -4 -14 -10 -14 -5 0 -19 -9 -30
-20 -20 -20 -19 -20 8 -34 15 -9 23 -16 17 -17 -5 0 1 -4 14 -8 17 -4 26 -15
28 -35 2 -16 11 -35 19 -44 15 -14 14 -66 -1 -80 -3 -3 -28 2 -56 11 -28 10
-61 17 -73 16 -14 0 -16 -2 -6 -6 21 -7 64 -26 134 -58 48 -23 60 -25 67 -14
5 8 9 16 9 19 0 3 12 6 26 5 34 0 47 -26 36 -67 l-9 -33 -13 28 c-14 29 -28
35 -34 15 -2 -7 -11 -40 -21 -72 -9 -33 -17 -74 -17 -93 0 -18 -4 -33 -10 -33
-5 0 -6 -5 -3 -11 14 -21 -16 -67 -48 -75 l-32 -7 27 -4 c17 -3 54 9 99 31 40
20 76 36 80 36 4 0 35 -23 68 -51 43 -36 73 -52 100 -56 37 -5 40 -3 80 51 40
54 64 77 39 37 -9 -15 -8 -22 5 -36 9 -9 17 -23 17 -31 0 -8 5 -14 10 -14 6 0
10 7 10 15 0 8 7 15 16 15 11 0 14 5 10 16 -7 18 11 47 25 39 4 -3 5 -13 2
-23 -6 -15 -5 -15 10 -3 9 7 17 22 17 32 0 10 4 20 9 23 10 7 20 -15 22 -47 1
-12 5 8 9 45 7 73 15 91 31 68 8 -11 9 -9 4 8 -5 18 -2 25 13 29 12 3 19 12
17 21 -1 10 2 23 8 30 5 7 7 16 3 20 -4 4 -12 0 -16 -8 -22 -36 -29 -44 -35
-38 -4 3 -1 16 5 28 19 36 6 47 -23 18 -23 -23 -27 -24 -27 -9 0 34 69 75 113
66 l32 -6 -30 17 c-80 44 -115 102 -134 219 -33 206 -41 245 -61 298 -30 79
-84 136 -128 133 -17 -1 -32 2 -32 7 0 4 -4 5 -10 2 -5 -3 -10 0 -10 8 0 22
-26 29 -132 35 -68 3 -107 1 -129 -8 -28 -12 -33 -11 -44 3 -7 9 -15 14 -19
10 -3 -4 -21 8 -39 25 -18 17 -55 38 -82 47 -61 18 -60 18 -47 3 16 -21 26
-62 12 -53 -13 8 -29 46 -40 95 -10 44 -49 152 -59 162 -4 5 -5 -8 -3 -27z
m363 -403 c53 -58 169 -228 169 -247 0 -7 7 -18 15 -25 8 -7 12 -16 9 -21 -3
-5 0 -9 5 -9 6 0 11 -11 11 -25 0 -14 5 -25 11 -25 5 0 8 -4 5 -9 -13 -20 -45
4 -66 50 -13 27 -27 49 -31 49 -4 0 -10 8 -13 18 -3 9 -16 28 -28 42 -13 14
-31 36 -40 51 -60 94 -193 203 -234 193 -17 -4 -24 -2 -24 8 0 16 37 53 60 60
20 7 92 -45 151 -110z m-16 88 c3 -5 -1 -10 -9 -10 -9 0 -16 5 -16 10 0 6 4
10 9 10 6 0 13 -4 16 -10z m256 -42 c22 -6 39 -15 39 -19 0 -15 -45 -20 -90
-10 -28 6 -46 7 -48 1 -7 -19 -19 -10 -17 13 1 12 3 23 4 25 3 7 79 1 112 -10z
m-616 -195 c4 -22 3 -33 -4 -33 -15 0 -33 49 -26 68 8 21 21 4 30 -35z m605
-244 c0 -5 -7 -9 -15 -9 -8 0 -15 7 -15 15 0 9 6 12 15 9 8 -4 15 -10 15 -15z
m10 -35 c0 -8 -4 -12 -10 -9 -5 3 -10 10 -10 16 0 5 5 9 10 9 6 0 10 -7 10
-16z m10 -34 c0 -5 -5 -10 -11 -10 -5 0 -7 5 -4 10 3 6 8 10 11 10 2 0 4 -4 4
-10z m20 -39 c0 -5 -13 -11 -30 -13 -24 -4 -27 -2 -19 9 13 15 49 18 49 4z m4
-80 c-1 -29 -7 -48 -18 -57 -13 -9 -14 -13 -4 -17 9 -4 6 -12 -11 -27 -25 -21
-62 -24 -68 -4 -2 6 8 9 26 6 16 -2 32 1 35 7 5 7 -2 11 -18 11 -33 0 -34 18
-1 26 29 7 32 20 8 46 -16 18 -16 19 10 9 32 -12 37 2 10 32 -17 18 -17 19 7
16 23 -4 25 -8 24 -48z m-1350 -480 c4 -5 -12 -7 -36 -4 -57 8 -61 13 -10 13
22 0 43 -4 46 -9z m711 -531 c3 -5 2 -10 -4 -10 -5 0 -13 5 -16 10 -3 6 -2 10
4 10 5 0 13 -4 16 -10z"/>
<path d="M1609 5323 c-13 -16 -12 -17 4 -4 9 7 17 15 17 17 0 8 -8 3 -21 -13z"/>
<path d="M4303 5318 c2 -7 14 -13 27 -13 13 0 25 6 28 13 2 8 -7 12 -28 12
-21 0 -30 -4 -27 -12z"/>
<path d="M1540 5311 c0 -6 4 -13 10 -16 6 -3 7 1 4 9 -7 18 -14 21 -14 7z"/>
<path d="M4196 5295 c-9 -26 -7 -32 5 -12 6 10 9 21 6 23 -2 3 -7 -2 -11 -11z"/>
<path d="M4260 5300 c0 -5 5 -10 11 -10 5 0 7 5 4 10 -3 6 -8 10 -11 10 -2 0
-4 -4 -4 -10z"/>
<path d="M5342 5290 c-18 -11 -38 -20 -45 -20 -7 0 -31 -17 -52 -38 -22 -21
-56 -47 -76 -59 -19 -12 -43 -31 -53 -41 -16 -19 -16 -19 11 -14 28 5 28 5 9
-17 -23 -26 -21 -28 31 -37 36 -6 45 -3 68 20 17 17 25 34 22 46 -3 11 1 21
10 24 8 4 13 13 9 21 -8 22 30 19 46 -2 22 -31 64 -27 108 8 33 27 40 39 40
67 0 37 4 36 -64 15 -16 -5 -18 -2 -12 20 8 33 -6 35 -52 7z m108 -44 c0 -3
-4 -8 -10 -11 -5 -3 -10 -1 -10 4 0 6 5 11 10 11 6 0 10 -2 10 -4z"/>
<path d="M2195 5240 c4 -6 11 -8 16 -5 14 9 11 15 -7 15 -8 0 -12 -5 -9 -10z"/>
<path d="M4220 5225 c0 -14 5 -25 10 -25 6 0 10 11 10 25 0 14 -4 25 -10 25
-5 0 -10 -11 -10 -25z"/>
<path d="M4970 4961 c-13 -25 -14 -242 0 -221 5 8 9 56 8 105 0 53 4 100 11
113 7 14 8 22 2 22 -6 0 -15 -9 -21 -19z"/>
<path d="M4882 4771 c2 -30 8 -56 15 -58 8 -3 10 10 6 44 -7 70 -25 81 -21 14z"/>
<path d="M4990 4675 c-1 -16 -1 -41 0 -54 3 -33 69 -171 69 -145 1 22 -32 140
-49 179 -5 11 -11 27 -13 35 -3 8 -6 2 -7 -15z"/>
<path d="M4850 4541 c0 -5 7 -15 17 -22 15 -13 15 -12 4 9 -12 23 -21 28 -21
13z"/>
<path d="M4750 4476 c0 -2 7 -7 16 -10 8 -3 12 -2 9 4 -6 10 -25 14 -25 6z"/>
<path d="M5776 4345 c22 -16 50 -19 58 -6 7 11 -17 21 -52 21 -25 0 -25 -1 -6
-15z"/>
<path d="M4741 4273 c7 -12 15 -20 18 -17 3 2 -3 12 -13 22 -17 16 -18 16 -5
-5z"/>
<path d="M5730 4240 c0 -11 6 -20 14 -20 9 0 12 7 9 20 -3 11 -9 20 -14 20 -5
0 -9 -9 -9 -20z"/>
<path d="M6624 4220 c0 -13 4 -16 10 -10 7 7 7 13 0 20 -6 6 -10 3 -10 -10z"/>
<path d="M4804 4175 c-21 -52 -13 -62 13 -15 12 22 17 42 12 46 -5 3 -16 -11
-25 -31z"/>
<path d="M5770 4140 c0 -5 7 -10 15 -10 8 0 15 5 15 10 0 6 -7 10 -15 10 -8 0
-15 -4 -15 -10z"/>
<path d="M4310 4091 l-85 -28 -18 -53 c-21 -62 -11 -110 29 -136 28 -19 39
-16 99 28 50 37 55 47 21 41 -20 -4 -24 0 -29 29 -6 41 -4 45 39 63 22 9 32
19 28 28 -3 8 2 20 10 27 15 11 13 31 -2 29 -4 0 -45 -13 -92 -28z"/>
<path d="M6480 4111 c0 -6 5 -13 10 -16 6 -3 10 1 10 9 0 9 -4 16 -10 16 -5 0
-10 -4 -10 -9z"/>
<path d="M6525 4050 c3 -5 11 -10 16 -10 6 0 7 5 4 10 -3 6 -11 10 -16 10 -6
0 -7 -4 -4 -10z"/>
<path d="M6055 4030 c12 -42 34 -69 61 -76 32 -8 45 5 19 20 -11 6 -35 27 -54
46 -31 31 -33 32 -26 10z"/>
<path d="M6458 4045 c-3 -6 1 -23 8 -40 14 -32 17 -17 5 25 -4 14 -9 20 -13
15z"/>
<path d="M6638 4002 c-10 -27 -18 -63 -17 -78 0 -23 5 -16 20 30 11 32 19 67
17 78 -2 13 -9 3 -20 -30z"/>
<path d="M6343 3995 c-7 -8 -13 -19 -13 -25 0 -16 27 -12 34 6 13 35 1 45 -21
19z"/>
<path d="M6246 3974 c-7 -19 2 -37 15 -29 12 8 12 45 0 45 -5 0 -12 -7 -15
-16z"/>
<path d="M4766 3944 c-5 -14 -4 -15 9 -4 17 14 19 20 6 20 -5 0 -12 -7 -15
-16z"/>
<path d="M1177 3930 c6 -22 15 -19 19 5 1 8 -4 15 -11 15 -8 0 -11 -7 -8 -20z"/>
<path d="M5836 3935 c4 -8 10 -15 15 -15 5 0 9 7 9 15 0 8 -7 15 -15 15 -9 0
-12 -6 -9 -15z"/>
<path d="M5880 3913 c0 -7 -7 -10 -17 -7 -11 4 -14 2 -8 -3 21 -17 46 -65 41
-78 -3 -8 0 -17 5 -21 6 -4 8 -20 5 -39 -5 -27 -3 -34 11 -37 12 -2 14 -6 6
-11 -7 -5 -34 23 -75 77 -35 47 -66 85 -71 86 -4 0 -11 -10 -16 -22 -11 -27
-95 -110 -129 -127 -12 -7 -27 -9 -32 -6 -20 12 -9 -28 25 -101 32 -67 37 -73
55 -64 17 9 25 6 45 -16 14 -15 30 -44 35 -65 9 -32 15 -38 43 -42 28 -3 29
-5 11 -11 -39 -14 -11 -66 35 -66 15 0 32 -5 38 -11 7 -7 58 -7 169 0 100 7
181 7 219 2 33 -5 96 -12 140 -15 l80 -6 -89 29 c-48 16 -98 39 -110 50 -12
12 -27 21 -34 21 -23 0 -20 18 6 31 15 7 34 18 42 25 26 20 105 31 166 23 32
-4 60 -7 61 -5 5 5 -58 116 -66 116 -13 0 -51 -31 -51 -42 0 -6 8 -20 17 -30
16 -18 14 -19 -75 -17 -51 1 -95 5 -98 10 -3 5 -16 6 -29 3 -14 -4 -33 0 -47
10 -34 24 -48 20 -48 -14 0 -40 -17 -38 -37 5 l-16 35 -24 -35 c-13 -19 -25
-35 -27 -35 -10 0 -98 227 -117 301 -21 82 -38 127 -39 102z m57 -235 c-3 -8
-6 -5 -6 6 -1 11 2 17 5 13 3 -3 4 -12 1 -19z m201 -203 c8 -7 -13 -35 -27
-35 -16 1 -51 23 -51 33 0 13 63 15 78 2z m-206 -12 c-6 -2 -10 -9 -7 -13 3
-5 0 -12 -6 -16 -8 -4 -9 -3 -5 4 4 7 0 12 -11 13 -16 0 -16 1 2 9 11 5 25 9
30 9 6 -1 4 -3 -3 -6z"/>
<path d="M6491 3915 c-1 -6 10 -49 23 -95 13 -47 27 -104 31 -127 4 -24 11
-45 16 -49 5 -3 7 -10 3 -15 -3 -5 -1 -16 6 -24 6 -7 17 -35 23 -62 10 -41 16
-48 40 -51 22 -3 27 1 27 17 0 12 -4 21 -8 21 -5 0 -14 19 -21 43 -36 125 -40
135 -119 307 -11 25 -21 40 -21 35z"/>
<path d="M1470 3880 c0 -5 7 -10 16 -10 8 0 12 5 9 10 -3 6 -10 10 -16 10 -5
0 -9 -4 -9 -10z"/>
<path d="M6580 3855 c7 -17 16 -56 20 -88 5 -33 15 -64 23 -70 8 -7 19 -21 25
-32 9 -16 11 -9 12 40 0 55 -3 65 -41 115 -52 70 -52 70 -39 35z"/>
<path d="M4624 3845 c-9 -14 -14 -28 -11 -31 3 -3 13 8 22 25 19 37 12 41 -11
6z"/>
<path d="M4620 3786 c0 -8 5 -18 10 -21 6 -3 10 1 10 9 0 8 -4 18 -10 21 -5 3
-10 -1 -10 -9z"/>
<path d="M6402 3779 c2 -6 8 -10 13 -10 5 0 11 4 13 10 2 6 -4 11 -13 11 -9 0
-15 -5 -13 -11z"/>
<path d="M4237 3733 c-4 -3 0 -15 8 -27 8 -11 15 -30 15 -41 0 -12 10 -31 23
-43 23 -22 23 -22 40 -2 9 11 17 26 17 33 0 25 -89 94 -103 80z"/>
<path d="M6385 3700 c3 -5 8 -10 11 -10 2 0 4 5 4 10 0 6 -5 10 -11 10 -5 0
-7 -4 -4 -10z"/>
<path d="M1735 3688 c-4 -9 -3 -23 1 -29 5 -9 2 -10 -9 -6 -8 3 -18 0 -20 -8
-4 -10 -16 -11 -53 -3 -35 8 -49 7 -52 -1 -2 -6 -8 -9 -13 -5 -5 3 -9 0 -9 -7
0 -8 -3 -9 -13 0 -8 6 -17 7 -21 3 -4 -4 -21 -7 -38 -7 -20 0 -34 -7 -42 -20
-6 -11 -18 -25 -26 -32 -10 -8 -11 -15 -5 -20 6 -5 10 -15 10 -23 -2 -26 26
-72 40 -66 19 7 27 -5 13 -21 -10 -12 -7 -13 18 -7 16 4 33 13 37 21 4 7 16
13 26 13 10 0 37 7 59 14 27 10 44 11 48 5 3 -6 12 -8 20 -5 8 3 14 -1 14 -9
0 -8 -6 -15 -12 -15 -7 0 -4 -7 7 -16 11 -8 28 -13 37 -10 10 2 21 0 24 -6 3
-5 -3 -12 -15 -15 -25 -6 -28 -40 -3 -45 9 -2 34 5 55 15 34 17 38 23 32 46
-4 14 -11 27 -16 29 -11 4 8 43 30 59 14 10 13 11 -6 7 -24 -7 -68 30 -57 47
4 6 -6 22 -22 35 -23 18 -25 23 -11 24 19 0 23 15 6 25 -6 4 -14 17 -19 29 -7
18 -9 19 -15 4z m75 -173 c11 -13 8 -15 -21 -14 -19 0 -28 3 -21 6 6 2 10 9 6
14 -9 15 23 10 36 -6z m-320 -11 c0 -8 -4 -12 -10 -9 -5 3 -10 10 -10 16 0 5
5 9 10 9 6 0 10 -7 10 -16z m330 -91 c0 -5 -11 -13 -25 -20 -27 -12 -33 -5
-13 15 13 13 38 16 38 5z"/>
<path d="M1667 3683 c-12 -11 -7 -33 7 -33 7 0 16 9 19 20 5 19 -12 28 -26 13z"/>
<path d="M6260 3659 c0 -5 5 -7 10 -4 6 3 10 8 10 11 0 2 -4 4 -10 4 -5 0 -10
-5 -10 -11z"/>
<path d="M1860 3650 c0 -5 4 -10 9 -10 6 0 13 5 16 10 3 6 -1 10 -9 10 -9 0
-16 -4 -16 -10z"/>
<path d="M4690 3646 c0 -2 8 -10 18 -17 15 -13 16 -12 3 4 -13 16 -21 21 -21
13z"/>
<path d="M4785 3610 c9 -16 18 -30 21 -30 2 0 -2 14 -11 30 -9 17 -18 30 -21
30 -2 0 2 -13 11 -30z"/>
<path d="M6404 3631 c3 -5 15 -7 26 -4 28 7 25 13 -6 13 -14 0 -23 -4 -20 -9z"/>
<path d="M5557 3586 c-11 -28 -8 -34 16 -32 17 1 23 6 19 18 -2 10 -8 16 -12
13 -5 -3 -10 0 -12 7 -3 7 -7 5 -11 -6z"/>
<path d="M6042 3581 c4 -13 18 -16 19 -4 0 4 -5 9 -11 12 -7 2 -11 -2 -8 -8z"/>
<path d="M2040 3522 c0 -6 -3 -17 -6 -25 -4 -12 0 -14 15 -10 25 6 27 16 6 33
-9 8 -15 8 -15 2z"/>
<path d="M1856 3491 c-4 -7 -5 -15 -2 -18 9 -9 19 4 14 18 -4 11 -6 11 -12 0z"/>
<path d="M5690 3470 c0 -11 60 -44 67 -36 9 9 -7 24 -37 34 -17 7 -30 7 -30 2z"/>
<path d="M1885 3460 c-3 -5 -1 -10 4 -10 6 0 11 5 11 10 0 6 -2 10 -4 10 -3 0
-8 -4 -11 -10z"/>
<path d="M2040 3441 c0 -22 15 -35 30 -26 7 4 7 13 0 26 -14 25 -30 25 -30 0z"/>
<path d="M4868 3433 c-33 -39 -31 -44 14 -27 54 22 56 23 38 34 -22 14 -35 12
-52 -7z"/>
<path d="M1520 3416 c-6 -6 -10 -16 -10 -23 0 -7 -4 -13 -10 -13 -5 0 -10 -6
-10 -13 0 -7 -8 -17 -18 -24 -14 -8 -18 -20 -14 -41 2 -16 -1 -33 -7 -36 -6
-4 -11 -18 -11 -31 0 -25 -36 -41 -71 -30 -15 5 -20 0 -25 -24 -5 -25 -11 -30
-28 -26 -11 2 -47 7 -79 10 -67 7 -63 13 -71 -102 l-5 -83 92 1 c70 1 83 3 53
9 -58 11 -65 33 -15 44 37 8 40 12 37 37 -4 23 -2 26 9 18 29 -25 62 -115 68
-192 6 -67 11 -83 36 -112 16 -18 38 -54 50 -80 11 -25 27 -49 35 -52 7 -3 12
-9 9 -13 -2 -4 4 -15 15 -25 10 -9 22 -30 25 -45 9 -43 52 -80 91 -80 19 0 34
-5 34 -10 0 -20 -73 -265 -84 -282 -19 -31 -36 -30 -48 2 -6 19 -17 30 -29 30
-11 0 -22 6 -25 14 -3 8 -21 17 -40 21 -40 7 -40 14 2 97 13 26 24 51 24 56 0
4 -40 6 -89 4 -50 -2 -91 0 -94 5 -4 6 37 13 100 17 103 6 143 19 143 48 0 6
-80 9 -201 6 l-201 -3 38 -30 c21 -16 66 -56 100 -88 53 -50 63 -65 78 -120
13 -49 15 -76 7 -133 -5 -39 -14 -81 -20 -93 -8 -13 -10 -39 -6 -65 9 -58 -20
-115 -94 -183 -30 -28 -53 -55 -49 -58 13 -13 122 60 128 85 5 20 8 14 14 -28
7 -48 5 -56 -22 -100 -17 -26 -35 -59 -41 -74 -10 -27 -9 -27 19 -21 17 3 30
1 30 -5 0 -14 -26 -34 -42 -31 -7 1 -26 1 -42 0 -22 -1 -27 -4 -21 -18 24 -62
13 -93 -21 -59 -7 8 -23 12 -34 9 -14 -4 -20 0 -20 11 0 13 -6 15 -26 10 -28
-7 -29 -2 -8 63 4 13 1 12 -14 -6 -13 -16 -21 -45 -24 -83 -5 -68 -27 -100
-56 -82 -28 18 -18 74 13 74 21 0 19 20 -2 21 -11 0 -13 3 -5 6 18 7 15 27 -8
48 -19 17 -21 17 -40 0 -17 -15 -22 -16 -36 -4 -15 12 -16 12 -11 -6 3 -11 13
-49 22 -83 9 -35 20 -71 25 -80 8 -15 19 -54 37 -130 5 -22 4 -23 -16 -11 -17
11 -25 11 -41 1 -26 -16 -40 -15 -40 3 0 8 -6 15 -14 15 -8 0 -22 3 -32 7 -14
5 -16 2 -12 -15 5 -18 3 -20 -11 -12 -11 5 -22 5 -27 0 -5 -5 -26 -10 -46 -12
-25 -1 -40 -8 -43 -19 -4 -12 -12 -15 -27 -11 -13 3 -26 -1 -33 -11 -10 -14
-16 -15 -38 -4 -15 6 -27 18 -27 25 0 14 -36 16 -45 2 -10 -16 -58 -12 -52 4
3 8 -1 17 -9 20 -24 9 -26 8 -19 -13 5 -15 -1 -19 -36 -25 -33 -5 -44 -3 -55
11 -12 16 -11 20 6 35 11 9 20 20 20 26 0 13 -28 36 -83 66 -40 22 -52 24 -70
15 l-21 -12 22 -8 c41 -15 26 -32 -24 -25 -26 3 -54 1 -65 -5 -11 -5 -52 -11
-92 -12 l-72 -2 -2 -73 c-1 -56 2 -75 13 -79 8 -3 14 -13 14 -22 -1 -12 -7 -9
-25 12 -16 18 -25 23 -25 13 0 -8 5 -18 11 -22 8 -4 8 -8 0 -13 -6 -4 10 -20
37 -37 44 -29 56 -32 166 -38 70 -4 126 -11 135 -19 9 -7 12 -8 8 -1 -5 8 7
10 38 6 38 -4 44 -2 40 11 -5 11 3 16 37 19 24 2 44 1 46 -2 14 -33 28 -39 69
-28 46 13 117 -3 127 -28 8 -21 75 -58 141 -78 33 -11 71 -23 85 -27 14 -5 41
-11 62 -15 25 -4 51 -21 83 -52 27 -27 43 -37 36 -25 -11 21 -10 23 17 23 34
0 45 9 32 25 -8 9 2 12 42 10 29 -1 60 -4 68 -7 8 -3 12 -3 8 -1 -16 9 -7 32
18 52 35 28 55 19 41 -19 -6 -16 -8 -32 -5 -36 4 -3 42 -10 85 -15 43 -4 95
-11 116 -15 21 -3 37 -2 36 3 -3 19 2 34 10 28 6 -3 5 9 0 30 -6 19 -8 39 -5
44 3 5 8 53 12 107 6 113 32 243 44 224 13 -21 32 -2 20 20 -12 23 -13 53 -1
46 5 -4 9 20 8 52 -1 62 33 252 45 252 5 0 8 -5 8 -11 0 -6 14 -41 32 -78 l31
-66 -17 -95 c-10 -52 -19 -106 -22 -120 -12 -74 -18 -98 -36 -123 -11 -16 -17
-31 -14 -35 4 -3 11 0 16 8 13 22 23 5 11 -18 -6 -11 -8 -29 -5 -39 5 -15 4
-15 -5 -3 -7 9 -11 10 -11 3 0 -6 5 -15 11 -19 7 -4 10 -45 9 -113 -3 -132 -3
-131 14 -131 9 0 12 7 9 20 -4 13 1 22 13 26 11 4 27 14 36 22 10 8 39 15 65
16 41 1 48 4 51 22 2 12 14 26 28 32 13 7 24 17 24 23 0 7 9 9 25 5 14 -4 25
-2 25 4 0 5 6 10 14 10 31 0 75 54 82 100 4 25 14 56 23 69 9 14 23 43 31 65
14 35 20 41 45 41 17 0 40 6 53 13 l24 14 -4 213 c-1 117 0 216 4 220 13 14
48 -16 48 -41 0 -14 4 -22 10 -19 6 3 10 1 10 -4 0 -6 -5 -11 -11 -11 -5 0 -7
-5 -4 -10 4 -6 11 -8 16 -5 12 8 12 -17 -1 -49 -8 -21 -7 -26 6 -26 13 0 15
-7 10 -32 -3 -18 -11 -35 -17 -39 -8 -4 -7 -9 4 -15 8 -5 22 -26 31 -48 19
-47 19 -46 2 -46 -9 0 -12 7 -9 20 3 11 0 20 -6 20 -18 0 -13 -40 7 -48 18 -7
28 -62 11 -62 -5 0 -7 -18 -4 -40 4 -31 2 -40 -9 -40 -14 0 -29 -28 -25 -46 4
-22 -2 -45 -10 -40 -4 3 -6 -6 -3 -19 3 -18 0 -25 -11 -25 -12 0 -15 -8 -11
-38 9 -67 25 -125 56 -205 35 -92 65 -117 140 -117 26 0 72 -8 103 -17 53 -16
56 -19 53 -47 -2 -16 -9 -31 -16 -34 -11 -3 -11 -1 -1 17 11 17 11 23 1 33
-11 11 -17 8 -32 -12 -11 -14 -20 -30 -20 -36 0 -7 -10 -14 -22 -17 -30 -7
-347 -50 -568 -77 -96 -11 -200 -25 -230 -30 -30 -5 -95 -14 -145 -20 -49 -6
-124 -15 -165 -20 -41 -5 -138 -17 -215 -25 -77 -9 -183 -22 -235 -30 -52 -8
-216 -28 -365 -44 -148 -17 -331 -40 -405 -50 -74 -11 -161 -23 -192 -27 l-58
-6 0 -124 0 -124 815 0 815 0 78 39 c42 21 145 68 227 103 141 62 156 66 250
73 54 3 107 11 116 16 26 14 97 11 132 -5 18 -8 41 -17 52 -19 11 -3 -2 -6
-30 -7 l-50 -2 40 -8 c22 -4 43 -6 47 -4 13 8 58 -8 52 -18 -6 -9 12 -6 54 9
6 3 12 3 12 0 0 -7 -69 -47 -200 -113 l-115 -59 104 -3 c67 -2 108 1 117 9 10
8 14 8 14 0 0 -21 38 -11 69 18 l31 29 -31 16 c-42 21 -56 20 -69 -3 -6 -12
-26 -22 -50 -26 -22 -4 -42 -11 -46 -16 -3 -5 -12 -9 -20 -9 -36 0 6 26 221
135 53 26 60 34 63 63 3 31 2 32 -35 33 -79 3 18 17 123 18 124 1 165 -6 171
-31 5 -19 33 -26 33 -8 0 6 7 10 15 10 8 0 15 -7 15 -15 0 -11 8 -13 33 -8 17
3 35 10 38 16 4 5 13 7 20 5 9 -3 3 -11 -16 -23 -85 -52 -106 -67 -102 -71 3
-3 27 8 53 25 45 27 59 30 181 36 158 9 187 4 181 -30 -5 -23 -5 -23 98 -24
79 -1 106 2 117 14 9 8 20 15 25 15 6 0 12 7 16 15 3 8 12 15 21 15 18 0 17 3
6 -38 -9 -28 -7 -32 11 -32 32 0 15 -23 -28 -36 -58 -18 -10 -17 60 2 69 17
135 35 154 40 19 5 14 18 -15 36 -21 13 -23 18 -10 18 15 0 22 11 18 33 -2 10
127 9 133 -2 3 -5 50 -12 105 -16 l98 -7 0 -39 c0 -39 0 -39 -40 -39 -35 0
-39 2 -34 21 9 34 -3 49 -38 49 -43 0 -54 -17 -19 -30 26 -10 26 -11 9 -30
-10 -11 -24 -20 -30 -20 -7 0 -23 -9 -36 -21 l-24 -20 55 5 c104 11 162 12
165 1 2 -5 6 -27 10 -47 l6 -38 982 1 c622 0 971 4 952 10 -16 5 -140 31 -274
59 -134 27 -245 51 -247 53 -11 11 10 35 38 43 28 8 39 24 87 120 31 61 68
127 84 146 15 19 27 42 27 51 0 10 4 17 10 17 5 0 72 28 147 63 l138 62 127 0
c71 0 128 -3 128 -7 0 -17 18 -6 28 17 11 24 10 25 -8 15 -11 -6 -47 -8 -89
-4 -68 7 -69 7 -56 28 19 29 -3 109 -31 115 -10 2 -32 12 -47 23 -45 32 -41
16 8 -32 25 -24 45 -47 45 -50 0 -4 -19 -4 -42 -1 -36 5 -44 10 -47 31 -1 14
-22 43 -46 65 -101 94 -114 105 -118 105 -11 0 12 -58 62 -157 28 -57 51 -107
51 -112 0 -5 -17 0 -37 10 -21 10 -43 19 -50 19 -14 0 -48 59 -38 68 3 4 10 0
14 -7 6 -8 11 -9 15 -3 3 6 2 13 -4 17 -5 3 -10 13 -10 21 0 8 -10 24 -22 36
l-21 21 5 -21 c9 -34 2 -27 -37 34 -36 57 -38 80 -3 71 12 -4 18 -1 15 6 -2 7
-19 13 -37 15 -19 2 -51 17 -71 33 -21 16 -40 25 -44 20 -3 -6 8 -32 24 -58
17 -28 33 -75 40 -115 12 -69 34 -132 56 -158 21 -25 28 -85 10 -100 -8 -7
-15 -19 -15 -27 0 -9 -6 -13 -14 -10 -8 3 -45 -15 -83 -40 -37 -24 -160 -90
-273 -146 -137 -67 -227 -118 -270 -153 -78 -63 -113 -78 -141 -64 -14 8 -18
17 -13 35 6 23 4 25 -32 24 -38 -1 -38 -1 -11 -11 15 -5 27 -13 27 -18 0 -9
-70 -5 -180 10 -36 5 -114 12 -173 16 -59 4 -110 10 -112 15 -3 4 -14 5 -25 2
-11 -3 -20 0 -20 6 0 6 -16 11 -35 11 -19 0 -35 5 -35 10 0 6 -16 10 -35 10
-55 0 -681 66 -950 101 -69 8 -128 22 -347 81 -63 17 -45 33 55 51 94 16 291
77 382 117 35 16 69 22 113 21 78 0 231 -28 292 -51 97 -38 209 -54 370 -54
174 0 240 13 240 44 0 11 9 29 21 41 11 11 18 26 16 33 -3 7 3 20 14 29 26 23
24 56 -3 66 -27 10 -38 -2 -38 -41 0 -34 -1 -34 -78 -4 -41 16 -74 23 -99 20
-28 -4 -45 1 -63 15 -33 26 -20 37 20 16 36 -19 93 -13 117 11 13 13 13 18 -2
40 -9 14 -26 29 -38 34 l-22 9 23 0 c29 1 28 19 -2 31 -35 13 -42 30 -12 30
41 0 68 -15 124 -69 29 -28 59 -51 66 -51 8 0 29 -3 47 -6 32 -5 33 -4 15 10
-11 9 -17 23 -14 33 3 10 -1 24 -8 31 -7 6 -17 19 -22 28 -7 13 -13 14 -29 6
-15 -8 -29 -8 -52 1 -30 11 -35 23 -32 73 3 38 -49 80 -114 94 -33 8 -66 18
-72 23 -7 5 -19 7 -27 4 -7 -3 -31 6 -52 21 -26 17 -34 27 -24 30 8 3 21 11
29 19 12 12 6 14 -40 11 -36 -2 -54 -7 -54 -16 0 -7 -5 -16 -11 -20 -6 -4 -14
-19 -18 -34 -3 -15 -24 -42 -46 -59 -22 -18 -40 -38 -40 -45 0 -7 -9 -18 -21
-24 -22 -12 -59 -67 -59 -88 0 -9 6 -8 25 4 23 15 24 15 30 -9 6 -24 -8 -66
-27 -78 -4 -3 -3 -20 3 -39 10 -28 9 -35 -4 -45 -15 -11 -15 -15 3 -51 23 -45
23 -44 9 -44 -5 0 -7 5 -4 10 3 6 0 10 -8 10 -18 0 -68 60 -61 72 3 5 13 7 21
4 10 -4 8 5 -8 30 -20 33 -21 38 -7 48 19 14 4 32 -35 41 -24 6 -25 5 -22 -40
2 -25 11 -57 19 -70 9 -13 16 -32 16 -42 0 -15 -2 -15 -16 3 -11 14 -17 16
-21 6 -4 -10 -9 -9 -24 4 -23 20 -25 54 -4 54 8 0 15 5 15 10 0 6 -7 10 -15
10 -8 0 -15 7 -15 15 0 25 -48 48 -103 50 -67 2 -97 17 -90 46 4 15 2 20 -5
15 -14 -8 -52 14 -52 31 0 7 -4 13 -9 13 -5 0 -21 27 -37 60 l-27 59 -29 -24
c-16 -14 -38 -25 -49 -25 -16 0 -17 -3 -7 -19 9 -15 8 -28 -6 -62 -29 -72 -39
-79 -123 -79 -85 0 -91 6 -68 69 20 57 19 59 -10 27 -26 -28 -54 -33 -73 -14
-8 8 -15 8 -26 -1 -11 -9 -16 -9 -21 0 -4 6 -19 9 -36 5 -23 -4 -32 0 -49 23
-11 16 -20 35 -20 42 0 10 -3 10 -12 1 -7 -7 -20 -12 -30 -12 -18 0 -67 26
-78 42 -3 4 -25 9 -48 11 -23 2 -41 7 -40 11 2 4 -13 14 -32 22 -24 11 -36 12
-38 4 -3 -7 -10 -6 -21 4 -9 9 -35 18 -56 21 -22 3 -47 9 -55 12 -8 3 -23 5
-32 4 -10 -1 -18 2 -18 8 0 7 -20 9 -55 6 -33 -3 -54 -1 -50 5 3 5 -10 16 -29
25 -19 9 -37 23 -40 31 -3 8 -2 12 4 9 5 -3 17 6 26 19 9 14 36 36 60 48 54
27 78 60 70 99 -3 15 1 44 9 63 8 20 15 61 15 93 0 32 4 75 9 96 5 21 5 39 0
43 -19 12 -7 24 23 24 28 0 30 2 18 14 -21 20 -180 79 -270 101 -41 9 -85 21
-98 26 -13 5 -34 9 -47 9 -26 0 -75 19 -75 30 0 3 5 11 11 17 16 16 25 173 10
173 -6 0 -11 8 -11 18 0 10 -11 33 -25 52 -14 19 -25 40 -25 47 0 7 -7 13 -15
13 -8 0 -17 12 -20 28 -4 15 -13 39 -21 54 -8 14 -14 33 -14 42 0 20 -21 11
-58 -24 -26 -25 -47 -22 -47 6 0 12 -6 18 -16 16 -9 -1 -35 20 -58 48 -46 55
-77 68 -61 25 5 -14 6 -25 2 -26 -4 -1 4 -5 18 -9 24 -8 24 -8 -7 -9 -31 -1
-31 -1 -25 -43 6 -45 25 -74 42 -63 6 4 8 -13 5 -47 -8 -98 -21 -146 -46 -170
-14 -12 -37 -48 -53 -78 -33 -62 -26 -58 28 18 44 61 62 62 22 1 -15 -22 -25
-47 -22 -55 3 -8 -4 -31 -16 -51 l-22 -38 25 23 c36 32 44 27 17 -10 -13 -18
-28 -42 -34 -52 -17 -31 -29 -29 -42 7 -11 31 -8 76 12 170 3 15 8 39 11 53 4
18 10 24 22 20 12 -5 14 -2 9 16 -16 56 -16 89 2 181 14 74 17 111 10 145 -11
58 4 89 46 100 31 8 31 9 32 81 1 40 5 75 8 78 3 3 1 12 -5 19 -6 7 -12 25
-14 39 l-2 26 28 -27 c16 -15 29 -34 29 -41 0 -8 9 -23 20 -35 11 -12 20 -34
20 -50 0 -40 30 -98 52 -98 11 0 15 5 12 14 -3 8 -1 17 5 21 7 4 6 14 -4 29
-9 13 -13 29 -10 37 2 8 -1 34 -9 59 -11 37 -18 46 -45 53 -17 4 -40 15 -51
25 -40 36 -49 42 -63 36 -8 -3 -18 0 -23 7 -5 9 -2 10 10 6 14 -6 16 -3 11 16
-14 51 -27 67 -51 61 -30 -8 -56 7 -44 25 7 12 18 11 72 -3 34 -10 79 -27 98
-39 l35 -21 -19 22 c-11 12 -25 22 -33 22 -7 0 -16 14 -19 30 -4 17 -13 30
-20 30 -8 0 -14 5 -14 10 0 6 -11 3 -24 -5 -23 -15 -76 -12 -76 4 0 21 30 31
90 31 61 0 69 -2 96 -31 16 -17 42 -37 57 -45 27 -15 28 -15 15 8 -7 13 -23
36 -36 52 -15 19 -21 37 -18 51 5 21 3 22 -38 18 -39 -5 -46 -2 -61 20 -14 22
-20 24 -35 15 -10 -6 -16 -18 -13 -25 6 -16 -33 -18 -43 -2 -14 23 29 48 87
50 l56 2 43 101 c24 56 47 106 52 111 6 6 25 -7 53 -37 23 -26 45 -44 49 -41
11 11 7 101 -6 128 -7 16 -23 28 -40 32 -32 6 -43 18 -32 34 4 8 9 7 15 -2 4
-7 12 -10 16 -5 4 4 -1 14 -12 22 -18 13 -20 13 -23 0 -4 -17 -22 -22 -22 -6
0 6 -7 10 -15 10 -9 0 -15 -9 -15 -25 0 -18 4 -23 15 -19 8 4 15 1 15 -5 0 -6
-10 -15 -23 -20 -26 -10 -43 -41 -52 -93 -8 -50 -34 -80 -63 -72 -15 5 -21 12
-17 22 4 12 3 13 -10 2 -13 -10 -15 -9 -15 8 0 12 -9 26 -20 32 -31 16 -43 47
-32 80 7 19 7 31 -1 39 -8 8 -8 11 1 12 7 1 17 3 22 4 6 1 18 3 28 4 12 1 17
10 18 31 1 34 -11 40 -19 10 -3 -11 -17 -24 -31 -30 -14 -5 -31 -18 -38 -29
-9 -15 -15 -17 -25 -9 -18 15 -16 28 5 29 11 1 8 4 -8 8 -14 4 -26 4 -28 -1
-5 -12 -32 -10 -32 3 0 5 -4 8 -9 5 -14 -9 -76 38 -79 61 -3 18 -9 22 -33 20
-16 -1 -34 -6 -39 -11z m245 -156 c-3 -5 -13 -10 -21 -10 -8 0 -14 5 -14 10 0
6 9 10 21 10 11 0 17 -4 14 -10z m-75 -30 c13 -8 13 -10 -2 -10 -9 0 -20 5
-23 10 -8 13 5 13 25 0z m30 -249 c0 -5 -7 -11 -15 -15 -23 -8 -18 -29 5 -23
11 3 18 1 15 -3 -3 -5 1 -10 7 -13 7 -2 -11 -3 -40 -1 -62 3 -75 10 -40 23 13
5 30 16 37 25 15 17 31 21 31 7z m-151 -92 c-16 -10 -23 -4 -14 10 3 6 11 8
17 5 6 -4 5 -9 -3 -15z m176 -29 c-3 -5 -11 -10 -16 -10 -6 0 -7 5 -4 10 3 6
11 10 16 10 6 0 7 -4 4 -10z m10 -29 c3 -5 1 -12 -4 -16 -13 -8 -2 -35 14 -35
7 0 18 -7 25 -15 16 -19 10 -19 -25 -1 -32 17 -45 33 -45 59 0 18 25 24 35 8z
m-240 -101 c3 -5 1 -10 -4 -10 -6 0 -11 5 -11 10 0 6 2 10 4 10 3 0 8 -4 11
-10z m90 -50 c-3 -5 -11 -10 -16 -10 -6 0 -7 5 -4 10 3 6 11 10 16 10 6 0 7
-4 4 -10z m400 -140 c3 -5 1 -10 -4 -10 -6 0 -11 5 -11 10 0 6 2 10 4 10 3 0
8 -4 11 -10z m-195 -76 c8 -19 4 -33 -19 -69 l-29 -45 -5 62 c-3 49 -1 66 11
75 18 15 30 9 42 -23z m173 -335 c-7 -81 -22 -105 -22 -37 -1 58 5 88 19 88 4
0 6 -23 3 -51z m-238 -388 c-3 -5 -1 -12 5 -16 5 -3 10 -14 10 -24 0 -9 11
-41 25 -69 28 -57 29 -62 17 -62 -5 0 -19 23 -32 50 -23 49 -40 64 -40 35 0
-8 -4 -15 -10 -15 -13 0 -13 27 1 36 6 3 8 15 6 26 -7 23 1 48 15 48 5 0 7 -4
3 -9z m73 -46 c0 -32 -12 -32 -26 -1 -8 19 -8 26 1 29 18 7 25 0 25 -28z
m-663 -281 c0 -13 -6 -18 -17 -16 -10 2 -18 -2 -18 -9 0 -6 -6 -9 -14 -6 -7 3
-19 0 -25 -6 -12 -12 -15 2 -3 18 12 17 56 44 67 41 6 -1 10 -11 10 -22z m90
16 c-3 -5 -14 -10 -23 -10 -15 0 -15 2 -2 10 20 13 33 13 25 0z m29 -26 c3 -9
6 -32 6 -53 0 -40 -26 -73 -67 -86 -27 -7 -29 3 -8 31 30 40 14 42 -64 8 -43
-19 -85 -34 -91 -34 -22 0 8 27 57 51 24 12 48 32 53 44 11 30 37 44 101 54 4
1 10 -6 13 -15z m-264 -204 c0 -5 -7 -10 -15 -10 -8 0 -15 5 -15 10 0 6 7 10
15 10 8 0 15 -4 15 -10z m62 -37 c13 4 23 -3 33 -23 19 -37 19 -42 -2 -38 -13
2 -17 -3 -15 -15 5 -27 -16 -47 -49 -47 -19 0 -29 5 -29 15 0 9 -9 33 -20 55
-11 22 -20 41 -20 44 0 2 15 13 33 25 l32 20 9 -20 c6 -13 16 -19 28 -16z
m-542 -63 c0 -5 -7 -7 -15 -4 -8 4 -15 8 -15 10 0 2 7 4 15 4 8 0 15 -4 15
-10z m-282 -29 c3 -8 0 -11 -7 -7 -6 4 -11 1 -11 -8 0 -22 -27 -20 -40 3 -5
11 -10 23 -10 26 0 13 64 0 68 -14z m437 -51 c3 -5 1 -10 -4 -10 -6 0 -11 5
-11 10 0 6 2 10 4 10 3 0 8 -4 11 -10z m141 -79 c-10 -16 -36 -13 -36 3 0 17
21 27 34 16 4 -5 5 -13 2 -19z m3518 -17 c49 -17 51 -30 6 -36 -16 -2 -31 4
-42 19 -31 37 -28 39 36 17z m-844 -144 c0 -18 -19 -11 -30 11 -11 19 -10 20
9 9 12 -6 21 -15 21 -20z m-77 13 c-18 -2 -48 -2 -65 0 -18 2 -4 4 32 4 36 0
50 -2 33 -4z m-606 -151 c22 -14 -4 -34 -51 -39 l-47 -6 12 27 c9 20 19 26 43
26 17 0 36 -4 43 -8z m1801 -31 c6 -1 12 -8 12 -16 0 -11 -12 -15 -45 -15 -38
0 -45 3 -45 20 0 17 5 19 33 16 17 -3 38 -5 45 -5z m-591 -7 c-3 -3 -12 -4
-19 -1 -8 3 -5 6 6 6 11 1 17 -2 13 -5z m318 -74 c27 -7 26 -8 -15 -9 -25 0
-52 4 -60 9 -11 7 -8 9 15 9 17 -1 44 -5 60 -9z m-581 -305 c-4 -8 -12 -15
-20 -15 -8 0 -14 7 -14 15 0 8 9 15 20 15 13 0 18 -5 14 -15z"/>
<path d="M1475 3400 c-3 -5 -2 -10 4 -10 5 0 13 5 16 10 3 6 2 10 -4 10 -5 0
-13 -4 -16 -10z"/>
<path d="M2080 3395 c-10 -12 -10 -18 0 -30 7 -8 18 -15 24 -15 6 0 5 4 -3 9
-12 8 -12 12 -2 24 7 9 8 18 3 21 -6 3 -15 -1 -22 -9z"/>
<path d="M4484 3374 c-4 -22 -2 -40 5 -47 6 -6 11 -7 11 -1 1 5 3 26 6 47 7
48 -13 50 -22 1z"/>
<path d="M1696 3375 c4 -8 8 -15 10 -15 2 0 4 7 4 15 0 8 -4 15 -10 15 -5 0
-7 -7 -4 -15z"/>
<path d="M4960 3340 l-45 -30 35 -2 c19 0 42 -1 50 0 8 1 36 3 62 5 60 5 77
-4 52 -30 -11 -10 -31 -24 -46 -31 -27 -11 -38 -32 -18 -32 6 0 10 -6 10 -14
0 -17 42 -25 173 -30 100 -5 112 0 54 19 -18 6 -31 16 -30 22 1 6 -5 10 -15 9
-9 0 -16 4 -15 10 1 7 -9 15 -22 18 -14 4 -25 11 -25 16 0 6 -7 10 -15 10 -8
0 -15 6 -15 13 0 6 -21 25 -46 40 -25 15 -43 23 -39 17 9 -15 -7 -12 -29 5
-26 19 -24 20 -76 -15z m135 -18 c-3 -3 -11 0 -18 7 -9 10 -8 11 6 5 10 -3 15
-9 12 -12z"/>
<path d="M1870 3340 c0 -5 5 -10 11 -10 5 0 7 5 4 10 -3 6 -8 10 -11 10 -2 0
-4 -4 -4 -10z"/>
<path d="M6540 3321 c0 -6 -11 -22 -25 -37 -14 -15 -25 -34 -25 -43 0 -9 -13
-28 -30 -43 -16 -14 -30 -31 -30 -37 0 -13 29 -3 55 19 11 9 28 20 38 23 10 4
16 11 13 16 -8 12 78 34 104 26 18 -6 21 -3 18 16 -4 32 -118 89 -118 60z"/>
<path d="M1896 3301 c-4 -7 -5 -15 -2 -18 9 -9 19 4 14 18 -4 11 -6 11 -12 0z"/>
<path d="M4455 3281 c14 -46 9 -145 -9 -183 -10 -21 -16 -43 -14 -50 6 -17 33
43 47 104 12 51 2 121 -19 142 -9 8 -11 5 -5 -13z"/>
<path d="M6409 3230 c-13 -11 -19 -19 -12 -20 6 0 15 5 18 11 4 6 13 8 21 5 8
-3 14 -1 14 4 0 19 -19 19 -41 0z"/>
<path d="M6245 3220 c-3 -5 -1 -10 4 -10 6 0 11 5 11 10 0 6 -2 10 -4 10 -3 0
-8 -4 -11 -10z"/>
<path d="M6260 3114 c-17 -15 -29 -28 -27 -31 3 -2 20 10 38 26 41 38 33 41
-11 5z"/>
<path d="M4350 3115 c0 -8 2 -15 4 -15 2 0 6 7 10 15 3 8 1 15 -4 15 -6 0 -10
-7 -10 -15z"/>
<path d="M6170 3052 c-14 -15 -50 -49 -80 -75 -42 -37 -49 -46 -30 -41 24 6
25 6 7 -13 -10 -12 -15 -27 -11 -37 3 -9 -1 -27 -10 -41 -16 -24 -16 -26 5
-34 19 -6 20 -9 6 -14 -10 -4 -17 -11 -17 -16 0 -11 67 -20 78 -9 11 11 72
-14 72 -29 0 -18 45 -16 63 1 10 11 17 12 25 4 10 -10 18 -9 125 19 27 7 20
20 -14 25 -19 3 -36 -1 -45 -10 -10 -9 -19 -11 -27 -5 -28 22 -46 21 -71 -4
-20 -20 -26 -22 -26 -9 0 9 5 16 10 16 6 0 10 8 10 19 0 17 -4 18 -45 9 -54
-11 -97 -1 -55 13 19 7 16 7 -12 3 -23 -3 -38 -1 -38 6 0 5 -8 10 -17 10 -21
0 44 61 155 147 8 7 13 15 10 18 -2 3 -40 -20 -84 -51 l-79 -55 66 65 c48 47
63 68 55 76 -8 8 -6 9 7 5 13 -6 17 -2 17 14 0 28 -20 25 -50 -7z m-13 -52
c-17 -15 -34 -26 -36 -24 -7 6 53 63 61 58 4 -3 -7 -18 -25 -34z"/>
<path d="M4325 3050 c-3 -5 -1 -10 4 -10 6 0 11 5 11 10 0 6 -2 10 -4 10 -3 0
-8 -4 -11 -10z"/>
<path d="M1950 3023 c0 -26 25 -47 42 -37 7 5 16 9 21 9 4 0 7 5 6 10 0 6 -7
9 -16 7 -8 -2 -24 4 -34 14 -18 16 -19 16 -19 -3z"/>
<path d="M2180 2998 c5 -27 3 -60 -6 -96 -8 -30 -12 -57 -10 -59 8 -8 26 34
40 98 15 64 9 99 -18 99 -10 0 -12 -10 -6 -42z"/>
<path d="M5200 3020 c8 -5 37 -10 63 -10 27 0 57 -5 68 -11 11 -6 25 -8 32 -6
21 8 -36 24 -108 30 -46 4 -65 3 -55 -3z"/>
<path d="M4360 2954 c-19 -8 -45 -12 -57 -9 -16 4 -23 1 -23 -10 0 -8 9 -15
20 -15 26 0 85 25 94 39 9 14 9 14 -34 -5z"/>
<path d="M2292 2933 c17 -40 29 -54 40 -47 5 4 8 15 5 25 -3 10 -1 22 4 25 20
12 7 24 -26 24 -34 0 -34 -1 -23 -27z"/>
<path d="M2590 2934 c0 -25 12 -109 23 -168 2 -10 11 -22 20 -27 17 -10 107
-141 107 -157 0 -16 57 -139 68 -146 13 -8 24 83 16 136 -6 42 -73 196 -74
170 0 -7 5 -22 10 -33 6 -10 7 -19 2 -19 -5 0 -15 12 -22 28 -38 76 -123 222
-136 233 -12 9 -14 7 -14 -17z"/>
<path d="M5897 2923 c18 -2 50 -2 70 0 21 2 7 4 -32 4 -38 0 -55 -2 -38 -4z"/>
<path d="M2528 2880 c4 -29 27 -58 38 -48 4 5 -34 78 -40 78 -2 0 -1 -13 2
-30z"/>
<path d="M6016 2874 c-8 -22 -8 -24 8 -24 21 0 28 16 12 29 -11 9 -15 8 -20
-5z"/>
<path d="M2560 2810 c0 -5 7 -10 16 -10 8 0 12 5 9 10 -3 6 -10 10 -16 10 -5
0 -9 -4 -9 -10z"/>
<path d="M3891 2809 c-13 -5 -22 -12 -19 -14 6 -6 58 12 58 20 0 7 -11 5 -39
-6z"/>
<path d="M5990 2765 c7 -8 19 -15 27 -15 13 0 13 3 3 15 -7 8 -19 15 -27 15
-13 0 -13 -3 -3 -15z"/>
<path d="M6570 2743 c-59 -8 -75 -14 -59 -24 18 -11 80 -12 97 0 19 12 -6 28
-38 24z"/>
<path d="M3085 2710 c3 -5 8 -10 11 -10 2 0 4 5 4 10 0 6 -5 10 -11 10 -5 0
-7 -4 -4 -10z"/>
<path d="M6335 2680 c-3 -5 3 -10 14 -10 10 0 28 -3 38 -7 16 -6 16 -5 4 10
-15 19 -46 23 -56 7z"/>
<path d="M3590 2670 c0 -5 16 -20 35 -32 18 -13 39 -33 44 -45 6 -13 17 -23
24 -23 8 0 24 -27 37 -62 13 -35 36 -82 51 -105 16 -23 29 -46 29 -52 0 -13
20 -14 40 -1 13 8 12 12 -7 29 -11 11 -27 37 -34 58 -7 21 -20 53 -31 71 -10
18 -18 39 -18 47 0 9 -26 31 -57 51 -32 20 -70 45 -85 55 -16 11 -28 15 -28 9z"/>
<path d="M2012 2656 c7 -8 15 -12 17 -11 5 6 -10 25 -20 25 -5 0 -4 -6 3 -14z"/>
<path d="M6528 2653 c6 -2 18 -2 25 0 6 3 1 5 -13 5 -14 0 -19 -2 -12 -5z"/>
<path d="M2970 2570 c0 -5 5 -10 11 -10 5 0 7 5 4 10 -3 6 -8 10 -11 10 -2 0
-4 -4 -4 -10z"/>
<path d="M3811 2523 c9 -10 21 -27 27 -38 11 -18 11 -18 10 7 -2 18 -11 31
-27 38 -24 11 -25 11 -10 -7z"/>
<path d="M303 2444 l-22 -16 30 -41 c17 -23 35 -42 40 -41 25 3 29 5 29 15 0
6 -7 9 -15 5 -12 -4 -15 4 -15 44 0 54 -9 60 -47 34z"/>
<path d="M1880 2406 c0 -8 5 -18 10 -21 6 -3 10 1 10 9 0 8 -4 18 -10 21 -5 3
-10 -1 -10 -9z"/>
<path d="M1982 2408 c-17 -17 -15 -33 3 -18 8 7 22 9 31 6 10 -4 14 -1 12 6
-6 18 -31 21 -46 6z"/>
<path d="M252 2378 c-18 -18 -14 -38 8 -38 21 0 26 16 12 37 -6 10 -11 10 -20
1z"/>
<path d="M2397 2350 c-3 -11 0 -18 6 -17 6 1 12 -2 12 -8 3 -17 24 -69 40 -95
8 -14 22 -41 32 -60 10 -19 35 -55 55 -79 21 -24 38 -49 38 -55 0 -7 13 -19
29 -29 44 -26 48 -3 7 40 -31 34 -33 38 -18 50 15 11 14 12 -11 13 -23 0 -26
2 -15 13 19 21 40 10 104 -54 62 -62 91 -76 78 -36 -15 49 -62 127 -134 221
-25 32 -49 67 -55 77 -5 11 -13 19 -16 19 -9 0 2 -49 12 -56 17 -10 9 -21 -13
-19 -14 1 -23 8 -22 18 1 9 -4 13 -12 10 -8 -3 -17 2 -20 11 -3 9 -10 16 -15
16 -4 0 -6 -7 -2 -16 10 -27 -30 0 -47 30 -16 31 -26 33 -33 6z m98 -110 c-3
-5 -13 -10 -21 -10 -8 0 -12 5 -9 10 3 6 13 10 21 10 8 0 12 -4 9 -10z m40
-54 c12 -9 16 -19 11 -32 -7 -18 -9 -18 -27 5 -31 38 -22 55 16 27z"/>
<path d="M1970 2351 c0 -5 7 -14 15 -21 8 -7 12 -17 8 -24 -4 -8 -3 -8 6 0 10
9 10 16 -1 33 -13 21 -28 28 -28 12z"/>
<path d="M847 2339 c7 -7 15 -10 18 -7 3 3 -2 9 -12 12 -14 6 -15 5 -6 -5z"/>
<path d="M3837 2333 c-4 -7 -1 -15 7 -20 7 -4 15 -17 17 -27 2 -11 10 -21 18
-24 10 -3 12 0 7 13 -4 11 -1 22 6 27 10 6 10 8 1 8 -7 0 -13 7 -13 16 0 13
-3 14 -14 5 -11 -9 -15 -9 -18 1 -3 9 -6 9 -11 1z"/>
<path d="M3310 2239 c0 -10 24 -39 33 -39 9 0 2 35 -8 42 -14 11 -25 10 -25
-3z"/>
<path d="M1851 2190 c-1 -23 15 -45 23 -31 4 6 3 11 -3 11 -5 0 -12 8 -14 18
-3 12 -5 13 -6 2z"/>
<path d="M3335 2179 c-10 -15 3 -25 16 -12 7 7 7 13 1 17 -6 3 -14 1 -17 -5z"/>
<path d="M3330 2119 c0 -5 5 -7 10 -4 6 3 10 8 10 11 0 2 -4 4 -10 4 -5 0 -10
-5 -10 -11z"/>
<path d="M2423 2095 c0 -29 8 -37 26 -26 10 7 10 12 0 30 -18 28 -26 27 -26
-4z"/>
<path d="M2450 2009 c0 -5 5 -7 10 -4 6 3 10 8 10 11 0 2 -4 4 -10 4 -5 0 -10
-5 -10 -11z"/>
<path d="M2280 1973 c0 -15 18 -35 23 -27 3 5 -1 15 -9 22 -8 7 -14 9 -14 5z"/>
<path d="M2468 1938 c5 -20 3 -21 -10 -10 -10 8 -18 9 -22 3 -4 -6 -13 -8 -21
-4 -8 3 -15 0 -15 -5 0 -6 14 -9 31 -7 26 4 29 2 19 -10 -10 -12 -7 -15 14
-21 14 -3 26 -10 26 -16 0 -5 5 -6 12 -2 6 4 17 -1 25 -11 13 -18 13 -18 14 1
0 10 3 13 6 7 5 -15 23 -17 23 -4 0 5 -9 13 -21 16 -12 4 -18 12 -15 21 5 12
2 12 -16 3 -18 -10 -20 -9 -15 5 6 14 3 15 -15 5 -22 -12 -22 -14 -2 36 4 9 0
15 -9 15 -11 0 -13 -7 -9 -22z"/>
<path d="M1095 1886 c-11 -7 -36 -16 -55 -20 -40 -8 -85 -36 -58 -36 9 0 19 6
22 13 5 10 7 10 12 0 3 -7 18 -13 34 -13 16 0 42 -11 58 -25 23 -20 31 -22 35
-11 4 10 -4 18 -24 25 -35 12 -37 36 -6 62 25 21 11 26 -18 5z"/>
<path d="M1252 1835 c-26 -24 -42 -45 -37 -45 6 0 31 20 55 45 57 58 43 59
-18 0z"/>
<path d="M1166 1740 c-14 -35 -20 -40 -48 -40 -17 0 -51 -9 -75 -21 -34 -16
-42 -25 -38 -40 5 -14 -3 -23 -31 -37 -37 -19 -37 -19 -15 -31 12 -7 24 -11
25 -9 1 2 8 15 15 29 25 51 60 79 97 79 22 0 37 -6 40 -15 7 -17 64 -21 64 -5
0 6 -6 10 -12 10 -35 1 -39 16 -13 61 27 47 30 59 16 59 -5 0 -16 -18 -25 -40z"/>
<path d="M3380 1685 c0 -8 4 -15 10 -15 5 0 7 7 4 15 -4 8 -8 15 -10 15 -2 0
-4 -7 -4 -15z"/>
<path d="M3394 1625 c26 -19 47 -19 40 0 -4 8 -18 15 -33 15 -25 -1 -25 -1 -7
-15z"/>
<path d="M3400 1594 c0 -11 29 -34 34 -26 2 4 -4 13 -15 20 -10 7 -19 10 -19
6z"/>
<path d="M4816 1578 c-19 -57 -115 -531 -116 -570 0 -4 9 -10 20 -13 32 -10
50 -34 50 -67 0 -19 15 -53 40 -90 22 -33 40 -68 40 -78 0 -18 25 -34 40 -25
5 3 12 1 15 -5 5 -8 11 -8 20 0 10 8 15 8 20 0 5 -8 10 -8 20 0 10 8 15 8 20
0 5 -8 11 -7 22 1 11 10 16 10 23 0 6 -11 8 -11 12 0 4 12 7 12 21 0 10 -7 17
-9 17 -3 0 11 -28 24 -38 19 -4 -2 -15 4 -24 15 -10 10 -14 18 -9 18 10 0 13
3 73 59 l36 33 51 -33 c28 -19 49 -38 47 -44 -2 -5 -8 -9 -14 -8 -5 1 -8 -7
-5 -17 3 -11 0 -20 -6 -20 -6 0 -11 7 -11 16 0 8 -4 13 -10 9 -5 -3 -7 -12 -3
-20 3 -8 1 -15 -5 -15 -6 0 -13 6 -15 13 -4 7 -6 6 -6 -5 -1 -11 -7 -15 -22
-11 -15 4 -20 2 -17 -7 5 -15 96 -21 105 -7 3 4 10 4 16 0 7 -5 26 -10 42 -12
17 -2 32 -7 33 -12 2 -6 11 -4 20 3 11 9 16 10 19 2 2 -7 13 -10 23 -7 12 3
20 0 20 -7 0 -9 4 -9 17 1 13 11 17 11 21 1 3 -10 7 -10 19 -1 12 10 16 10 23
-1 7 -11 11 -11 24 -1 9 8 16 9 16 4 0 -5 31 -9 69 -9 61 1 68 3 60 18 -25 46
4 108 42 88 24 -14 24 -25 -2 -61 -17 -24 -19 -33 -9 -44 9 -11 16 -12 25 -5
7 6 15 6 22 -1 8 -8 13 -7 18 1 5 8 11 7 23 -2 12 -10 16 -10 19 0 3 6 10 9
16 5 7 -4 25 -8 40 -9 27 -2 27 -1 13 20 -26 36 -76 147 -76 167 0 21 -16 26
-22 7 -5 -14 -48 53 -48 76 0 9 -20 31 -45 48 -34 24 -42 34 -34 45 7 7 19 13
28 13 14 0 14 -2 1 -10 -8 -5 -10 -10 -4 -10 7 0 22 9 35 20 23 18 16 27 -16
20 -5 -1 -40 -3 -76 -4 -37 -1 -73 -7 -80 -13 -8 -6 -23 -12 -34 -14 -13 -3
-23 -18 -32 -49 l-13 -45 6 55 c2 30 7 78 11 107 5 49 4 53 -20 64 -21 10 -33
9 -61 -5 -42 -20 -105 -21 -141 -2 -15 8 -62 17 -104 21 -42 3 -88 8 -103 11
-53 10 -43 60 20 93 20 11 33 20 29 21 -4 0 -21 -7 -37 -15 -36 -19 -41 -2 -7
25 l22 19 -39 40 c-29 30 -37 45 -34 64 l5 25 -46 -14 c-61 -18 -71 -18 -71 5
0 11 -5 23 -11 27 -8 5 -6 10 5 16 12 7 14 16 9 36 -8 35 -31 59 -37 40z m629
-658 c3 -5 1 -10 -4 -10 -6 0 -11 5 -11 10 0 6 2 10 4 10 3 0 8 -4 11 -10z
m135 -65 c0 -8 -9 -15 -20 -15 -15 0 -20 7 -20 25 0 23 2 24 20 15 11 -6 20
-17 20 -25z"/>
<path d="M3370 1561 c0 -6 5 -13 10 -16 6 -3 10 1 10 9 0 9 -4 16 -10 16 -5 0
-10 -4 -10 -9z"/>
<path d="M213 1528 c4 -27 3 -28 -32 -23 -20 3 -65 -1 -101 -8 l-65 -14 45
-13 c33 -9 60 -10 100 -2 37 7 59 6 68 0 15 -13 15 -13 -3 42 -9 25 -14 33
-12 18z"/>
<path d="M3400 1480 c0 -5 5 -10 10 -10 6 0 10 5 10 10 0 6 -4 10 -10 10 -5 0
-10 -4 -10 -10z"/>
<path d="M3440 1476 c0 -2 8 -10 18 -17 15 -13 16 -12 3 4 -13 16 -21 21 -21
13z"/>
<path d="M4210 1421 c0 -6 8 -16 18 -23 28 -21 63 -75 57 -90 -3 -8 19 -47 50
-88 30 -40 55 -77 55 -81 0 -8 67 -41 112 -54 l23 -7 -21 23 c-12 13 -58 74
-103 134 -92 123 -92 123 -142 165 -39 32 -49 36 -49 21z"/>
<path d="M180 1360 c-8 -5 -34 -6 -57 -3 -39 5 -43 4 -43 -15 0 -12 9 -23 20
-27 21 -7 150 4 150 12 0 2 -5 13 -10 24 -11 20 -36 24 -60 9z"/>
<path d="M915 1330 c3 -5 16 -10 28 -10 18 0 19 2 7 10 -20 13 -43 13 -35 0z"/>
<path d="M827 1276 c-21 -16 -9 -29 13 -15 8 5 27 9 43 9 15 0 27 5 27 10 0
15 -62 12 -83 -4z"/>
<path d="M1689 1197 c-26 -37 -69 -107 -66 -107 6 0 97 117 97 124 0 13 -16 4
-31 -17z"/>
<path d="M1695 1140 c-3 -5 -1 -10 4 -10 6 0 11 5 11 10 0 6 -2 10 -4 10 -3 0
-8 -4 -11 -10z"/>
<path d="M3626 1073 c-11 -11 -6 -23 9 -23 8 0 15 4 15 9 0 13 -16 22 -24 14z"/>
<path d="M3426 1021 c-3 -5 18 -11 47 -13 58 -5 62 -4 52 11 -8 13 -92 15 -99
2z"/>
<path d="M3375 980 c-3 -5 -1 -10 4 -10 6 0 11 5 11 10 0 6 -2 10 -4 10 -3 0
-8 -4 -11 -10z"/>
<path d="M1611 954 c0 -11 3 -14 6 -6 3 7 2 16 -1 19 -3 4 -6 -2 -5 -13z"/>
<path d="M3770 945 c0 -9 5 -13 10 -10 6 3 10 -1 10 -9 0 -18 36 -21 60 -6 18
11 8 22 -22 25 -13 2 -31 6 -40 10 -13 5 -18 2 -18 -10z"/>
<path d="M5752 919 c6 -17 17 -33 24 -36 8 -3 14 -14 14 -25 0 -24 28 -78 40
-78 12 0 13 15 1 38 -4 9 -13 31 -18 48 -9 29 -9 31 9 26 34 -9 4 34 -33 47
-46 16 -49 14 -37 -20z"/>
<path d="M1626 931 c-6 -9 54 -124 61 -117 2 2 -10 31 -26 65 -16 34 -32 58
-35 52z"/>
<path d="M6070 920 c0 -5 5 -10 11 -10 5 0 7 5 4 10 -3 6 -8 10 -11 10 -2 0
-4 -4 -4 -10z"/>
<path d="M5955 900 c10 -11 20 -20 22 -20 2 0 -1 9 -7 20 -6 11 -16 20 -22 20
-6 0 -3 -9 7 -20z"/>
<path d="M3725 900 c-3 -5 -1 -10 4 -10 6 0 11 5 11 10 0 6 -2 10 -4 10 -3 0
-8 -4 -11 -10z"/>
<path d="M3355 869 c-4 -6 2 -13 14 -16 12 -3 21 -9 21 -14 0 -5 12 -7 28 -3
53 11 55 13 42 29 -14 17 -95 21 -105 4z"/>
<path d="M1208 803 c7 -3 16 -2 19 1 4 3 -2 6 -13 5 -11 0 -14 -3 -6 -6z"/>
<path d="M6565 728 c-16 -6 -34 -17 -38 -25 -5 -7 -12 -11 -17 -8 -4 3 -11 -2
-14 -10 -4 -11 8 -8 42 11 44 25 72 45 62 43 -3 0 -18 -5 -35 -11z"/>
<path d="M6488 713 c6 -2 18 -2 25 0 6 3 1 5 -13 5 -14 0 -19 -2 -12 -5z"/>
<path d="M2 594 c3 -48 4 -48 43 -56 62 -13 118 -26 140 -34 11 -4 -9 12 -45
36 -36 23 -82 56 -103 73 l-38 30 3 -49z"/>
<path d="M588 503 c7 -3 16 -2 19 1 4 3 -2 6 -13 5 -11 0 -14 -3 -6 -6z"/>
<path d="M4818 203 c7 -3 16 -2 19 1 4 3 -2 6 -13 5 -11 0 -14 -3 -6 -6z"/>
<path d="M3935 181 c-7 -12 22 -41 40 -41 8 0 26 5 41 10 26 10 26 11 8 25
-21 16 -80 20 -89 6z"/>
<path d="M3177 133 c-11 -3 -16 -11 -13 -19 6 -17 -39 -38 -61 -30 -9 4 -13 0
-11 -12 3 -19 -12 -20 -99 -7 -46 7 -51 5 -50 -11 2 -19 -26 -31 -76 -33 -25
-1 -27 1 -17 19 16 31 -16 26 -70 -10 l-45 -30 132 1 c106 1 133 5 138 16 3
10 13 13 30 9 17 -4 44 4 93 31 44 23 75 34 86 30 15 -6 16 -10 6 -22 -8 -10
-17 -12 -24 -6 -8 7 -16 3 -25 -10 -12 -20 -11 -21 21 -14 31 7 77 41 78 58 0
4 -10 7 -22 8 l-23 0 23 11 c12 6 22 15 22 20 0 8 -61 9 -93 1z"/>
<path d="M2375 120 c3 -5 8 -10 11 -10 2 0 4 5 4 10 0 6 -5 10 -11 10 -5 0 -7
-4 -4 -10z"/>
<path d="M2894 95 c-16 -12 -17 -14 -3 -15 9 0 19 7 23 15 7 19 5 19 -20 0z"/>
<path d="M3526 91 c-3 -5 0 -11 7 -13 17 -7 38 2 31 13 -7 12 -31 12 -38 0z"/>
<path d="M3585 90 c-3 -5 1 -10 9 -10 8 0 18 5 21 10 3 6 -1 10 -9 10 -8 0
-18 -4 -21 -10z"/>
<path d="M2022 34 c-5 -9 -27 -20 -48 -24 -32 -6 -26 -8 36 -8 41 0 84 3 94 7
18 7 16 9 -14 24 -42 21 -57 21 -68 1z"/>
<path d="M1703 3 c9 -2 25 -2 35 0 9 3 1 5 -18 5 -19 0 -27 -2 -17 -5z"/>
<path d="M1803 3 c9 -2 23 -2 30 0 6 3 -1 5 -18 5 -16 0 -22 -2 -12 -5z"/>
</g>
</svg>
